0
SECTION
2
HEADER
9
$INSUNITS
70
1
9
$ACADVER
1
AC1014
9
$HANDSEED
5
FFFF
0
ENDSEC
0
SECTION
2
TABLES
0
TABLE
2
VPORT
5
8
100
AcDbSymbolTable
0
ENDTAB
0
TABLE
2
LTYPE
5
5
100
AcDbSymbolTable
0
LTYPE
5
14
100
AcDbSymbolTableRecord
100
AcDbLinetypeTableRecord
2
BYBLOCK
70
0
0
LTYPE
5
15
100
AcDbSymbolTableRecord
100
AcDbLinetypeTableRecord
2
BYLAYER
70
0
0
LTYPE
5
16
100
AcDbSymbolTableRecord
100
AcDbLinetypeTableRecord
2
DASHED
70
0
3
Dashed __ __ __ __ __ __ __ __ __ __ __ __ __ _
72
65
73
2
40
0.75
49
0.5
74
0
49
-0.25
74
0
0
ENDTAB
0
TABLE
2
LAYER
5
2
100
AcDbSymbolTable
70
3
0
LAYER
5
50
100
AcDbSymbolTableRecord
100
AcDbLayerTableRecord
2
1
70
0
62
7
6
DASHED
0
LAYER
5
51
100
AcDbSymbolTableRecord
100
AcDbLayerTableRecord
2
0
70
0
62
7
6
CONTINUOUS
0
ENDTAB
0
TABLE
2
STYLE
5
3
100
AcDbSymbolTable
70
1
0
STYLE
5
11
100
AcDbSymbolTableRecord
100
AcDbTextStyleTableRecord
2
STANDARD
70
0
0
ENDTAB
0
TABLE
2
VIEW
5
6
100
AcDbSymbolTable
70
0
0
ENDTAB
0
TABLE
2
UCS
5
7
100
AcDbSymbolTable
70
0
0
ENDTAB
0
TABLE
2
APPID
5
9
100
AcDbSymbolTable
70
2
0
APPID
5
12
100
AcDbSymbolTableRecord
100
AcDbRegAppTableRecord
2
ACAD
70
0
0
ENDTAB
0
TABLE
2
DIMSTYLE
5
A
100
AcDbSymbolTable
70
1
0
ENDTAB
0
TABLE
2
BLOCK_RECORD
5
1
100
AcDbSymbolTable
70
1
0
BLOCK_RECORD
5
1F
100
AcDbSymbolTableRecord
100
AcDbBlockTableRecord
2
*MODEL_SPACE
0
BLOCK_RECORD
5
1B
100
AcDbSymbolTableRecord
100
AcDbBlockTableRecord
2
*PAPER_SPACE
0
ENDTAB
0
ENDSEC
0
SECTION
2
BLOCKS
0
BLOCK
5
20
100
AcDbEntity
100
AcDbBlockBegin
2
*MODEL_SPACE
0
ENDBLK
5
21
100
AcDbEntity
100
AcDbBlockEnd
0
BLOCK
5
1C
100
AcDbEntity
100
AcDbBlockBegin
2
*PAPER_SPACE
0
ENDBLK
5
1D
100
AcDbEntity
100
AcDbBlockEnd
0
ENDSEC
0
SECTION
2
ENTITIES
0
LWPOLYLINE
5
100
100
AcDbEntity
8
0
100
AcDbPolyline
90
4
70
1
43
0.0
10
-0.77999981494220338
20
6.9990016460333626
10
-1.7799997274746351
20
6.9990020436128226
10
-1.7799997274746353
20
7.2190020436128401
10
-0.7799997274747148
20
7.2190016460333464
0
LWPOLYLINE
5
101
100
AcDbEntity
8
0
100
AcDbPolyline
90
52
70
1
43
0.0
10
-3.9999997102402749
20
7.1599999999998287
10
-3.9999997102402749
20
6.1599999999998296
10
-3.7799997316815386
20
6.1599999999998296
10
-3.7799997316815386
20
5.1599999999998296
10
-3.9999997102402749
20
5.1599999999998296
10
-3.9999997102402749
20
4.1599999999998305
10
-3.7799997316815386
20
4.1599999999998305
10
-3.7799997316815386
20
3.1599999999998309
10
-3.9999997102402749
20
3.1599999999998309
10
-3.9999997102402749
20
2.1599999999998305
10
-3.7799997316815386
20
2.1599999999998305
10
-3.7799997796550042
20
0.68999999999983463
10
-3.9999996392395358
20
0.68999999999983463
10
-3.9999996392395358
20
0.46999999999983466
10
-3.7799997796550042
20
0.46999999999983455
10
-3.7799997866911137
20
-1.6539700492840913e-13
10
-3.9999997102402749
20
-1.6537762322543767e-13
10
-3.9999997102402749
20
-1.0000000000001652
10
-1.5499997102402752
20
-1.0000000000001652
42
0.41421356237309809
10
-1.4999997102402749
20
-0.95000000000016527
10
-1.4999997102402756
20
-0.67000000000016535
42
0.41421356237309703
10
-1.5499997102402754
20
-0.62000000000016509
10
-2.5799997102402741
20
-0.62000000000016486
42
-0.99999999999999989
10
-2.5799997102402745
20
-0.38000000000016521
10
-0.1799997102402757
20
-0.38000000000016521
42
-0.99999999999999989
10
-0.17999971024027578
20
-0.62000000000016553
10
-1.2099997102402755
20
-0.62000000000016542
42
0.41421356237309304
10
-1.2599997102402754
20
-0.67000000000016513
10
-1.2599997102402756
20
-0.95000000000016505
42
0.41421356237309603
10
-1.2099997102402762
20
-1.0000000000001648
10
4.0000002897597202
20
-1.0000000000001652
10
4.0000002897597202
20
-1.6522216665681463e-13
10
3.7800002897597214
20
-1.6530372647085359e-13
10
3.7800003607604502
20
0.46999999999983483
10
4.0000003607604491
20
0.46999999999983466
10
4.0000003607604491
20
0.68999999999983475
10
3.7800003607604511
20
0.68999999999983463
10
3.7800004087339172
20
2.1599999999998296
10
4.0000002897597202
20
2.1599999999998296
10
4.0000002897597202
20
3.1599999999998301
10
3.7800004087339172
20
3.1599999999998301
10
3.7800004087339181
20
4.1599999999998296
10
4.0000002897597202
20
4.1599999999998296
10
4.0000002897597202
20
5.1599999999998296
10
3.7800004087339181
20
5.1599999999998296
10
3.7800004087339181
20
6.1599999999998287
10
4.0000002897597202
20
6.1599999999998287
10
4.0000002897597202
20
7.1599999999998287
10
3.7800004087339185
20
7.1599999999998287
10
3.7800004087339181
20
7.9999999999998348
10
-3.7799997316815386
20
7.9999999999998348
10
-3.7799997316815377
20
7.1599999999998287
0
LWPOLYLINE
5
102
100
AcDbEntity
8
0
100
AcDbPolyline
90
4
70
1
43
0.0
10
0.77999955823039679
20
6.9990010258096005
10
0.77999964569788549
20
7.2190010258095842
10
1.779999645697806
20
7.2190006282300905
10
1.7799996456978058
20
6.9990006282300703
0
LWPOLYLINE
5
103
100
AcDbEntity
8
0
100
AcDbPolyline
90
4
70
1
43
0.0
10
1.8799972804480642
20
1.0200007554009365
10
1.6599972804480818
20
1.0200008428684255
10
1.6599975189957754
20
1.6200008428683779
10
1.8799975189957578
20
1.6200007554008891
0
LWPOLYLINE
5
104
100
AcDbEntity
8
0
100
AcDbPolyline
90
4
70
1
43
0.0
10
3.0299978686193447
20
2.6400002979839439
10
3.0299977811373004
20
2.420000297983961
10
2.6299977811373187
20
2.4200004570422231
10
2.6299978686193763
20
2.6400004570422051
0
LWPOLYLINE
5
105
100
AcDbEntity
8
0
100
AcDbPolyline
90
4
70
1
43
0.0
10
-3.2000000000000592
20
0.2199999999999824
10
-2.8999999899691775
20
0.2199999999999824
10
-2.9000000774512338
20
3.4967654318902565e-16
10
-3.2000000874821004
20
-4.3728982462645058e-28
0
LWPOLYLINE
5
106
100
AcDbEntity
8
0
100
AcDbPolyline
90
4
70
1
43
0.0
10
-2.5000000000000009
20
0.21999999999999997
10
-1.5000000000000009
20
0.21999999999999997
10
-1.5000000000000009
20
0
10
-2.5000000000000009
20
-4.3728982462645058e-28
0
LWPOLYLINE
5
107
100
AcDbEntity
8
0
100
AcDbPolyline
90
4
70
1
43
0.0
10
-1.2000000023060469
20
0.2199999999999824
10
-0.90000000000003721
20
0.21999999999998263
10
-0.90000008748208149
20
0
10
-1.200000089788088
20
-4.3728982462645058e-28
0
LWPOLYLINE
5
108
100
AcDbEntity
8
0
100
AcDbPolyline
90
4
70
1
43
0.0
10
-0.50000000000000089
20
0.21999999999999997
10
0.499999999999999
20
0.21999999999999997
10
0.49999999999999911
20
0
10
-0.50000000000000089
20
-4.3728982462645058e-28
0
LWPOLYLINE
5
109
100
AcDbEntity
8
0
100
AcDbPolyline
90
4
70
1
43
0.0
10
0.80000000501537127
20
0.2199999999999824
10
1.1000000100308309
20
0.21999999999998263
10
1.0999999225487864
20
0
10
0.79999991753332478
20
-4.3728982462645058e-28
0
LWPOLYLINE
5
110
100
AcDbEntity
8
0
100
AcDbPolyline
90
4
70
1
43
0.0
10
1.4999999999999991
20
0.21999999999999997
10
2.4999999999999991
20
0.21999999999999997
10
2.4999999999999991
20
0
10
1.4999999999999991
20
-4.3728982462645058e-28
0
LWPOLYLINE
5
111
100
AcDbEntity
8
0
100
AcDbPolyline
90
4
70
1
43
0.0
10
2.7999999861640972
20
0.2199999999999824
10
3.0999999930820819
20
0.21999999999998263
10
3.0999999056000376
20
0
10
2.79999989868206
20
-4.3728982462645058e-28
0
CIRCLE
5
112
100
AcDbEntity
8
0
100
AcDbCircle
10
3.3189999978891622
20
-0.3199999836448571
30
0
40
0.062499999999999813
210
-0
220
0
230
1
0
CIRCLE
5
113
100
AcDbEntity
8
0
100
AcDbCircle
10
-3.3189999978891622
20
7.6800000163551427
30
0
40
0.062499999999999813
210
-0
220
0
230
1
0
CIRCLE
5
114
100
AcDbEntity
8
0
100
AcDbCircle
10
-3.3189999978891622
20
-0.3199999836448571
30
0
40
0.062499999999999813
210
-0
220
0
230
1
0
CIRCLE
5
115
100
AcDbEntity
8
0
100
AcDbCircle
10
3.3189999978891622
20
7.6800000163551427
30
0
40
0.062499999999999813
210
-0
220
0
230
1
0
CIRCLE
5
116
100
AcDbEntity
8
0
100
AcDbCircle
10
1.0653541995937164
20
6.3661415732517508
30
0
40
0.062499999999999972
210
0
220
-0
230
1
0
CIRCLE
5
117
100
AcDbEntity
8
0
100
AcDbCircle
10
-1.2653544618235748
20
1.6338581086848205
30
0
40
0.062499999999999972
210
0
220
-0
230
1
0
CIRCLE
5
118
100
AcDbEntity
8
0
100
AcDbCircle
10
-2.2653544618235744
20
7.3661415732517499
30
0
40
0.062500000000000153
210
0
220
-0
230
1
0
CIRCLE
5
119
100
AcDbEntity
8
0
100
AcDbCircle
10
1.0653541995937157
20
1.6338581086848203
30
0
40
0.062499999999999972
210
0
220
-0
230
1
0
CIRCLE
5
120
100
AcDbEntity
8
0
100
AcDbCircle
10
2.0653541995937506
20
7.3661415732517161
30
0
40
0.062500000000000153
210
0
220
-0
230
1
0
CIRCLE
5
121
100
AcDbEntity
8
0
100
AcDbCircle
10
-2.2653544618236099
20
0.63385810868486026
30
0
40
0.062500000000000153
210
0
220
-0
230
1
0
CIRCLE
5
122
100
AcDbEntity
8
0
100
AcDbCircle
10
-1.2653544618235748
20
6.3661415732517508
30
0
40
0.062499999999999799
210
0
220
-0
230
1
0
CIRCLE
5
123
100
AcDbEntity
8
0
100
AcDbCircle
10
2.065354199593715
20
0.63385810868482029
30
0
40
0.062500000000000153
210
0
220
-0
230
1
0
ENDSEC
0
SECTION
2
OBJECTS
0
DICTIONARY
5
C
100
AcDbDictionary
3
ACAD_GROUP
350
D
3
ACAD_MLINESTYLE
350
17
0
DICTIONARY
5
D
100
AcDbDictionary
0
DICTIONARY
5
1A
330
C
100
AcDbDictionary
0
DICTIONARY
5
17
100
AcDbDictionary
0
ENDSEC
0
EOF
