0
SECTION
2
HEADER
9
$INSUNITS
70
1
9
$ACADVER
1
AC1014
9
$HANDSEED
5
FFFF
0
ENDSEC
0
SECTION
2
TABLES
0
TABLE
2
VPORT
5
8
100
AcDbSymbolTable
0
ENDTAB
0
TABLE
2
LTYPE
5
5
100
AcDbSymbolTable
0
LTYPE
5
14
100
AcDbSymbolTableRecord
100
AcDbLinetypeTableRecord
2
BYBLOCK
70
0
0
LTYPE
5
15
100
AcDbSymbolTableRecord
100
AcDbLinetypeTableRecord
2
BYLAYER
70
0
0
LTYPE
5
16
100
AcDbSymbolTableRecord
100
AcDbLinetypeTableRecord
2
DASHED
70
0
3
Dashed __ __ __ __ __ __ __ __ __ __ __ __ __ _
72
65
73
2
40
0.75
49
0.5
74
0
49
-0.25
74
0
0
ENDTAB
0
TABLE
2
LAYER
5
2
100
AcDbSymbolTable
70
2
0
LAYER
5
50
100
AcDbSymbolTableRecord
100
AcDbLayerTableRecord
2
0
70
0
62
7
6
CONTINUOUS
0
ENDTAB
0
TABLE
2
STYLE
5
3
100
AcDbSymbolTable
70
1
0
STYLE
5
11
100
AcDbSymbolTableRecord
100
AcDbTextStyleTableRecord
2
STANDARD
70
0
0
ENDTAB
0
TABLE
2
VIEW
5
6
100
AcDbSymbolTable
70
0
0
ENDTAB
0
TABLE
2
UCS
5
7
100
AcDbSymbolTable
70
0
0
ENDTAB
0
TABLE
2
APPID
5
9
100
AcDbSymbolTable
70
2
0
APPID
5
12
100
AcDbSymbolTableRecord
100
AcDbRegAppTableRecord
2
ACAD
70
0
0
ENDTAB
0
TABLE
2
DIMSTYLE
5
A
100
AcDbSymbolTable
70
1
0
ENDTAB
0
TABLE
2
BLOCK_RECORD
5
1
100
AcDbSymbolTable
70
1
0
BLOCK_RECORD
5
1F
100
AcDbSymbolTableRecord
100
AcDbBlockTableRecord
2
*MODEL_SPACE
0
BLOCK_RECORD
5
1B
100
AcDbSymbolTableRecord
100
AcDbBlockTableRecord
2
*PAPER_SPACE
0
ENDTAB
0
ENDSEC
0
SECTION
2
BLOCKS
0
BLOCK
5
20
100
AcDbEntity
100
AcDbBlockBegin
2
*MODEL_SPACE
0
ENDBLK
5
21
100
AcDbEntity
100
AcDbBlockEnd
0
BLOCK
5
1C
100
AcDbEntity
100
AcDbBlockBegin
2
*PAPER_SPACE
0
ENDBLK
5
1D
100
AcDbEntity
100
AcDbBlockEnd
0
ENDSEC
0
SECTION
2
ENTITIES
0
LWPOLYLINE
5
100
100
AcDbEntity
8
0
100
AcDbPolyline
90
4
70
1
43
0.0
10
-0.76999981891800362
20
6.989001642057568
10
-1.7899997274746393
20
6.989002047588615
10
-1.7899997274746395
20
7.229002047588633
10
-0.76999972349892509
20
7.2290016420575478
0
LWPOLYLINE
5
101
100
AcDbEntity
8
0
100
AcDbPolyline
90
52
70
1
43
0.0
10
-3.9999997102402749
20
7.149999999999828
10
-3.9999997102402749
20
6.1699999999998294
10
-3.7699997316815388
20
6.1699999999998294
10
-3.7699997316815388
20
5.1499999999998298
10
-3.9999997102402749
20
5.1499999999998298
10
-3.9999997102402749
20
4.1699999999998303
10
-3.7699997316815388
20
4.1699999999998303
10
-3.7699997316815388
20
3.1499999999998312
10
-3.9999997102402749
20
3.1499999999998312
10
-3.9999997102402749
20
2.1699999999998307
10
-3.7699997796550035
20
2.1699999999998303
10
-3.7699997796550035
20
0.67999999999983451
10
-3.9999996392395358
20
0.67999999999983463
10
-3.9999996392395358
20
0.47999999999983467
10
-3.7699997796550035
20
0.4799999999998345
10
-3.7699997796550035
20
-0.010000000000165432
10
-3.9999997102402749
20
-0.010000000000165378
10
-3.9999997102402749
20
-1.0000000000001652
10
-1.5499997102402752
20
-1.0000000000001652
42
0.41421356237309809
10
-1.4999997102402749
20
-0.95000000000016527
10
-1.4999997102402756
20
-0.67000000000016535
42
0.41421356237309703
10
-1.5499997102402754
20
-0.62000000000016509
10
-2.5799997102402741
20
-0.62000000000016486
42
-0.99999999999999989
10
-2.5799997102402745
20
-0.38000000000016521
10
-0.1799997102402757
20
-0.38000000000016521
42
-0.99999999999999989
10
-0.17999971024027578
20
-0.62000000000016553
10
-1.2099997102402755
20
-0.62000000000016542
42
0.41421356237309304
10
-1.2599997102402754
20
-0.67000000000016513
10
-1.2599997102402756
20
-0.95000000000016505
42
0.41421356237309603
10
-1.2099997102402762
20
-1.0000000000001648
10
4.0000002897597202
20
-1.0000000000001652
10
4.0000002897597202
20
-0.010000000000165344
10
3.7700003607604518
20
-0.010000000000165389
10
3.7700003607604504
20
0.47999999999983484
10
4.0000003607604491
20
0.47999999999983467
10
4.0000003607604491
20
0.67999999999983463
10
3.770000408733917
20
0.67999999999983451
10
3.770000408733917
20
2.1699999999998294
10
4.0000002897597202
20
2.1699999999998294
10
4.0000002897597202
20
3.1499999999998303
10
3.770000408733917
20
3.1499999999998294
10
3.770000408733917
20
4.1699999999998294
10
4.0000002897597202
20
4.1699999999998294
10
4.0000002897597202
20
5.1499999999998298
10
3.770000408733917
20
5.1499999999998298
10
3.770000408733917
20
6.1699999999998285
10
4.0000002897597202
20
6.1699999999998285
10
4.0000002897597202
20
7.149999999999828
10
3.7700004087339183
20
7.149999999999828
10
3.7700004087339183
20
7.9999999999998348
10
-3.7699997316815388
20
7.9999999999998348
10
-3.7699997316815388
20
7.149999999999828
0
LWPOLYLINE
5
102
100
AcDbEntity
8
0
100
AcDbPolyline
90
4
70
1
43
0.0
10
0.76999955425459787
20
6.9890010297853955
10
0.76999964967367629
20
7.2290010297853762
10
1.7899996456978009
20
7.2290006242542937
10
1.7899996456978007
20
6.9890006242542739
0
LWPOLYLINE
5
103
100
AcDbEntity
8
0
100
AcDbPolyline
90
4
70
1
43
0.0
10
1.8899972764722661
20
1.0100007514251423
10
1.6499972764722857
20
1.010000846844221
10
1.6499975229715722
20
1.6300008468441716
10
1.8899975229715527
20
1.6300007514250932
0
LWPOLYLINE
5
104
100
AcDbEntity
8
0
100
AcDbPolyline
90
4
70
1
43
0.0
10
3.0399978725958001
20
2.6500002940074854
10
3.0399977771608424
20
2.4100002940075047
10
2.6199977771608758
20
2.4100004610186803
10
2.6199978725958335
20
2.6500004610186609
0
LWPOLYLINE
5
105
100
AcDbEntity
8
0
100
AcDbPolyline
90
4
70
1
43
0.0
10
-3.2099999960236012
20
0.22999999999998269
10
-2.8899999859927319
20
0.22999999999998269
10
-2.8900000814276892
20
-0.0099999999999999464
10
-3.2100000914585576
20
-0.0099999999999999256
0
LWPOLYLINE
5
106
100
AcDbEntity
8
0
100
AcDbPolyline
90
4
70
1
43
0.0
10
-2.5100000000000011
20
0.22999999999999987
10
-1.4900000000000011
20
0.22999999999999987
10
-1.4900000000000011
20
-0.0099999999999999031
10
-2.5100000000000011
20
-0.0099999999999999256
0
LWPOLYLINE
5
107
100
AcDbEntity
8
0
100
AcDbPolyline
90
4
70
1
43
0.0
10
-1.2099999983295855
20
0.22999999999998269
10
-0.88999999602357971
20
0.22999999999998269
10
-0.8900000914585372
20
-0.0099999999999999464
10
-1.2100000937645432
20
-0.0099999999999999256
0
LWPOLYLINE
5
108
100
AcDbEntity
8
0
100
AcDbPolyline
90
4
70
1
43
0.0
10
-0.51000000000000101
20
0.22999999999999987
10
0.49999999999999911
20
0.23000000000000001
10
0.49999999999999911
20
-0.010000000000000078
10
-0.51000000000000101
20
-0.0099999999999999256
0
LWPOLYLINE
5
109
100
AcDbEntity
8
0
100
AcDbPolyline
90
4
70
1
43
0.0
10
0.79000000899183564
20
0.22999999999998269
10
1.1100000140072723
20
0.22999999999998269
10
1.1099999185723146
20
-0.0099999999999999464
10
0.78999991355687826
20
-0.0099999999999999256
0
LWPOLYLINE
5
110
100
AcDbEntity
8
0
100
AcDbPolyline
90
4
70
1
43
0.0
10
1.4899999999999991
20
0.22999999999999987
10
2.5099999999999989
20
0.22999999999999987
10
2.5099999999999989
20
-0.0099999999999999031
10
1.4899999999999991
20
-0.0099999999999999256
0
LWPOLYLINE
5
111
100
AcDbEntity
8
0
100
AcDbPolyline
90
4
70
1
43
0.0
10
2.789999990140589
20
0.22999999999998269
10
3.109999997058539
20
0.22999999999998269
10
3.1099999016235818
20
-0.0099999999999999464
10
2.7899998947056317
20
-0.0099999999999999256
0
CIRCLE
5
112
100
AcDbEntity
8
0
100
AcDbCircle
10
3.3189999978891622
20
-0.3199999836448571
30
0
40
0.062499999999999833
210
0
220
-0
230
1
0
CIRCLE
5
113
100
AcDbEntity
8
0
100
AcDbCircle
10
-3.3189999978891622
20
7.6800000163551427
30
0
40
0.062499999999999833
210
0
220
-0
230
1
0
CIRCLE
5
114
100
AcDbEntity
8
0
100
AcDbCircle
10
-3.3189999978891622
20
-0.3199999836448571
30
0
40
0.062499999999999833
210
0
220
-0
230
1
0
CIRCLE
5
115
100
AcDbEntity
8
0
100
AcDbCircle
10
3.3189999978891622
20
7.6800000163551427
30
0
40
0.062499999999999833
210
0
220
-0
230
1
0
CIRCLE
5
116
100
AcDbEntity
8
0
100
AcDbCircle
10
1.0653541995937164
20
6.3661415732517508
30
0
40
0.062499999999999972
210
0
220
-0
230
1
0
CIRCLE
5
117
100
AcDbEntity
8
0
100
AcDbCircle
10
-1.2653544618235748
20
1.6338581086848205
30
0
40
0.062499999999999972
210
0
220
-0
230
1
0
CIRCLE
5
118
100
AcDbEntity
8
0
100
AcDbCircle
10
-2.2653544618235744
20
7.3661415732517499
30
0
40
0.062500000000000153
210
0
220
-0
230
1
0
CIRCLE
5
119
100
AcDbEntity
8
0
100
AcDbCircle
10
1.0653541995937157
20
1.6338581086848203
30
0
40
0.062499999999999972
210
0
220
-0
230
1
0
CIRCLE
5
120
100
AcDbEntity
8
0
100
AcDbCircle
10
2.0653541995937506
20
7.3661415732517161
30
0
40
0.062500000000000153
210
0
220
-0
230
1
0
CIRCLE
5
121
100
AcDbEntity
8
0
100
AcDbCircle
10
-2.2653544618236099
20
0.63385810868486026
30
0
40
0.062500000000000153
210
0
220
-0
230
1
0
CIRCLE
5
122
100
AcDbEntity
8
0
100
AcDbCircle
10
-1.2653544618235748
20
6.3661415732517508
30
0
40
0.062499999999999799
210
0
220
-0
230
1
0
CIRCLE
5
123
100
AcDbEntity
8
0
100
AcDbCircle
10
2.065354199593715
20
0.63385810868482029
30
0
40
0.062500000000000153
210
0
220
-0
230
1
0
ENDSEC
0
SECTION
2
OBJECTS
0
DICTIONARY
5
C
100
AcDbDictionary
3
ACAD_GROUP
350
D
3
ACAD_MLINESTYLE
350
17
0
DICTIONARY
5
D
100
AcDbDictionary
0
DICTIONARY
5
1A
330
C
100
AcDbDictionary
0
DICTIONARY
5
17
100
AcDbDictionary
0
ENDSEC
0
EOF
