0
SECTION
2
HEADER
9
$INSUNITS
70
1
9
$ACADVER
1
AC1014
9
$HANDSEED
5
FFFF
0
ENDSEC
0
SECTION
2
TABLES
0
TABLE
2
VPORT
5
8
100
AcDbSymbolTable
0
ENDTAB
0
TABLE
2
LTYPE
5
5
100
AcDbSymbolTable
0
LTYPE
5
14
100
AcDbSymbolTableRecord
100
AcDbLinetypeTableRecord
2
BYBLOCK
70
0
0
LTYPE
5
15
100
AcDbSymbolTableRecord
100
AcDbLinetypeTableRecord
2
BYLAYER
70
0
0
LTYPE
5
16
100
AcDbSymbolTableRecord
100
AcDbLinetypeTableRecord
2
DASHED
70
0
3
Dashed __ __ __ __ __ __ __ __ __ __ __ __ __ _
72
65
73
2
40
0.75
49
0.5
74
0
49
-0.25
74
0
0
ENDTAB
0
TABLE
2
LAYER
5
2
100
AcDbSymbolTable
70
3
0
LAYER
5
50
100
AcDbSymbolTableRecord
100
AcDbLayerTableRecord
2
1
70
0
62
7
6
DASHED
0
LAYER
5
51
100
AcDbSymbolTableRecord
100
AcDbLayerTableRecord
2
0
70
0
62
7
6
CONTINUOUS
0
ENDTAB
0
TABLE
2
STYLE
5
3
100
AcDbSymbolTable
70
1
0
STYLE
5
11
100
AcDbSymbolTableRecord
100
AcDbTextStyleTableRecord
2
STANDARD
70
0
0
ENDTAB
0
TABLE
2
VIEW
5
6
100
AcDbSymbolTable
70
0
0
ENDTAB
0
TABLE
2
UCS
5
7
100
AcDbSymbolTable
70
0
0
ENDTAB
0
TABLE
2
APPID
5
9
100
AcDbSymbolTable
70
2
0
APPID
5
12
100
AcDbSymbolTableRecord
100
AcDbRegAppTableRecord
2
ACAD
70
0
0
ENDTAB
0
TABLE
2
DIMSTYLE
5
A
100
AcDbSymbolTable
70
1
0
ENDTAB
0
TABLE
2
BLOCK_RECORD
5
1
100
AcDbSymbolTable
70
1
0
BLOCK_RECORD
5
1F
100
AcDbSymbolTableRecord
100
AcDbBlockTableRecord
2
*MODEL_SPACE
0
BLOCK_RECORD
5
1B
100
AcDbSymbolTableRecord
100
AcDbBlockTableRecord
2
*PAPER_SPACE
0
ENDTAB
0
ENDSEC
0
SECTION
2
BLOCKS
0
BLOCK
5
20
100
AcDbEntity
100
AcDbBlockBegin
2
*MODEL_SPACE
0
ENDBLK
5
21
100
AcDbEntity
100
AcDbBlockEnd
0
BLOCK
5
1C
100
AcDbEntity
100
AcDbBlockBegin
2
*PAPER_SPACE
0
ENDBLK
5
1D
100
AcDbEntity
100
AcDbBlockEnd
0
ENDSEC
0
SECTION
2
ENTITIES
0
CIRCLE
5
100
100
AcDbEntity
8
0
100
AcDbCircle
10
2.3779527559055116
20
-0.00011772046290076437
30
0
40
0.098425196850393692
210
0
220
0
230
1
0
CIRCLE
5
101
100
AcDbEntity
8
0
100
AcDbCircle
10
1.7874015865363473
20
1.6391087961985574e-17
30
0
40
0.098425196850393692
210
0
220
0
230
1
0
LWPOLYLINE
5
102
100
AcDbEntity
8
0
100
AcDbPolyline
90
4
70
1
43
0.0
10
3.6900000002911453
20
-2.4999999795144592
42
0.45141622964513539
10
5.1900000002911453
20
-2.4999999795144596
10
5.1900000002911453
20
2.5000000204855404
42
0.45141622964513595
10
3.6900000002911462
20
2.5000000204855399
0
LWPOLYLINE
5
103
100
AcDbEntity
8
0
100
AcDbPolyline
90
32
70
1
43
0.0
10
0.439999999999998
20
-3.7799999999999998
10
0.43999999999999784
20
-3.9999999999999996
10
1.4399999999999977
20
-3.9999999999999996
10
1.4399999999999977
20
-3.7799999999999998
10
3.4399999999999973
20
-3.7799999999999998
10
3.4399999999999973
20
-3.9999999999999996
10
4.4399999999999977
20
-3.9999999999999996
10
4.4399999999999977
20
-3.7799999999999994
10
6.280000000000002
20
-3.7799999999999998
10
6.2800000000000011
20
-2.4999999999999991
10
6.4999999023797939
20
-2.4999999999999991
10
6.4999999023797939
20
-1.4999999999999991
10
6.2800000000000011
20
-1.4999999999999991
10
6.2800000000000002
20
-0.49999999999999911
10
6.4999999023797939
20
-0.49999999999999911
10
6.4999999023797939
20
0.50000000000000089
10
6.2800000000000002
20
0.50000000000000089
10
6.2800000000000002
20
1.5000000000000009
10
6.4999999023797939
20
1.5000000000000009
10
6.4999999023797939
20
2.5000000000000009
10
6.2799999999999994
20
2.5000000000000009
10
6.2800000000000002
20
3.7800001404154622
10
4.4399999999999977
20
3.7800001404154626
10
4.4399999999999986
20
4.000000116596742
10
3.4399999999999999
20
4.0000001050342551
10
3.4400000007727809
20
3.7800001404154626
10
1.4400000017446077
20
3.7800001404154626
10
1.4399999999999995
20
4.0000000819092811
10
0.43999999999999923
20
4.0000000703467942
10
0.44000000096111658
20
3.7800001404154626
10
-0.55999999941770473
20
3.7800001404154622
10
-0.56000000000000194
20
-3.7799999999999998
0
ENDSEC
0
SECTION
2
OBJECTS
0
DICTIONARY
5
C
100
AcDbDictionary
3
ACAD_GROUP
350
D
3
ACAD_MLINESTYLE
350
17
0
DICTIONARY
5
D
100
AcDbDictionary
0
DICTIONARY
5
1A
330
C
100
AcDbDictionary
0
DICTIONARY
5
17
100
AcDbDictionary
0
ENDSEC
0
EOF
