0
SECTION
2
HEADER
9
$INSUNITS
70
1
9
$ACADVER
1
AC1014
9
$HANDSEED
5
FFFF
0
ENDSEC
0
SECTION
2
TABLES
0
TABLE
2
VPORT
5
8
100
AcDbSymbolTable
0
ENDTAB
0
TABLE
2
LTYPE
5
5
100
AcDbSymbolTable
0
LTYPE
5
14
100
AcDbSymbolTableRecord
100
AcDbLinetypeTableRecord
2
BYBLOCK
70
0
0
LTYPE
5
15
100
AcDbSymbolTableRecord
100
AcDbLinetypeTableRecord
2
BYLAYER
70
0
0
LTYPE
5
16
100
AcDbSymbolTableRecord
100
AcDbLinetypeTableRecord
2
DASHED
70
0
3
Dashed __ __ __ __ __ __ __ __ __ __ __ __ __ _
72
65
73
2
40
0.75
49
0.5
74
0
49
-0.25
74
0
0
ENDTAB
0
TABLE
2
LAYER
5
2
100
AcDbSymbolTable
70
3
0
LAYER
5
50
100
AcDbSymbolTableRecord
100
AcDbLayerTableRecord
2
1
70
0
62
7
6
DASHED
0
LAYER
5
51
100
AcDbSymbolTableRecord
100
AcDbLayerTableRecord
2
0
70
0
62
7
6
CONTINUOUS
0
ENDTAB
0
TABLE
2
STYLE
5
3
100
AcDbSymbolTable
70
1
0
STYLE
5
11
100
AcDbSymbolTableRecord
100
AcDbTextStyleTableRecord
2
STANDARD
70
0
0
ENDTAB
0
TABLE
2
VIEW
5
6
100
AcDbSymbolTable
70
0
0
ENDTAB
0
TABLE
2
UCS
5
7
100
AcDbSymbolTable
70
0
0
ENDTAB
0
TABLE
2
APPID
5
9
100
AcDbSymbolTable
70
2
0
APPID
5
12
100
AcDbSymbolTableRecord
100
AcDbRegAppTableRecord
2
ACAD
70
0
0
ENDTAB
0
TABLE
2
DIMSTYLE
5
A
100
AcDbSymbolTable
70
1
0
ENDTAB
0
TABLE
2
BLOCK_RECORD
5
1
100
AcDbSymbolTable
70
1
0
BLOCK_RECORD
5
1F
100
AcDbSymbolTableRecord
100
AcDbBlockTableRecord
2
*MODEL_SPACE
0
BLOCK_RECORD
5
1B
100
AcDbSymbolTableRecord
100
AcDbBlockTableRecord
2
*PAPER_SPACE
0
ENDTAB
0
ENDSEC
0
SECTION
2
BLOCKS
0
BLOCK
5
20
100
AcDbEntity
100
AcDbBlockBegin
2
*MODEL_SPACE
0
ENDBLK
5
21
100
AcDbEntity
100
AcDbBlockEnd
0
BLOCK
5
1C
100
AcDbEntity
100
AcDbBlockBegin
2
*PAPER_SPACE
0
ENDBLK
5
1D
100
AcDbEntity
100
AcDbBlockEnd
0
ENDSEC
0
SECTION
2
ENTITIES
0
LWPOLYLINE
5
100
100
AcDbEntity
8
0
100
AcDbPolyline
90
45
70
1
43
0.0
10
8.3200000072818039
20
-4.2199968188347796
42
0.41421356237309415
10
8.5400000072818116
20
-3.999996818834771
10
8.5400000072818045
20
-3.1300004461243929
42
0.41421356237308993
10
8.4400000072818031
20
-3.0300004461243888
10
7.586854385646526
20
-3.0300004461243857
42
-2.7342719282326016
10
7.586854385646526
20
-2.6300004461243542
10
8.4400000072818031
20
-2.6300004461243538
42
0.4142135623731043
10
8.5400000072818063
20
-2.5300004461243453
10
8.5400000072818045
20
0.060003007709266275
42
0.41421356237309209
10
8.4400000072818031
20
0.16000300770926579
10
7.5199999705957046
20
0.16000300770926637
42
0.41421356237308599
10
7.419999970595704
20
0.060003007709266351
10
7.4199999705957049
20
-1.3199969922907167
42
-0.99999999999999989
10
7.1799999705956941
20
-1.3199969922907502
10
7.1799999705957047
20
1.8800030077092831
42
-0.99999999999999989
10
7.4199999705956943
20
1.8800030077092502
10
7.4199999705957049
20
0.50000300770926642
42
0.41421356237309226
10
7.5199999705957055
20
0.40000300770926683
10
8.4400000072818049
20
0.4000030077092665
42
0.41421356237308604
10
8.5400000072818045
20
0.50000300770926642
10
8.5400000072818045
20
4.3400029128468276
42
0.41421356237309037
10
8.3200000072818039
20
4.5600029128468371
10
6.7200000122972305
20
4.560002912846846
42
0.41421356905029999
10
6.5000000122972219
20
4.3400029078314022
10
6.500000038286327
20
3.2000000874820982
10
6.2800002074429369
20
3.2000000874821013
10
6.2800002074429369
20
2.900000087482077
10
6.5000000451255469
20
2.9000000774512302
10
6.5000000838811198
20
1.2000000897880827
10
6.2800002074429369
20
1.2000000897880858
10
6.2800002074429369
20
0.90000008748208149
10
6.5000000072818045
20
0.90000008748208149
10
6.5000001294759118
20
-0.79999991753333299
10
6.2800002074429369
20
-0.79999991753333566
10
6.2800002074429369
20
-1.0999999125179323
10
6.5000002074429366
20
-1.0999999225487864
10
6.5000001750707046
20
-2.799999898682072
10
6.2800002074429369
20
-2.7999999125179658
10
6.2800002074429369
20
-3.0999999056000385
10
6.5000002074429366
20
-3.0999999056000385
10
6.5000001974120813
20
-3.7799968188347446
10
7.0000002074429366
20
-3.7799968188347535
10
7.0000002074429366
20
-3.9999968188347719
10
6.5000002024275085
20
-3.9999968188347701
42
0.41421356237309687
10
6.7200002024275092
20
-4.2199968188347805
0
LWPOLYLINE
5
101
100
AcDbEntity
8
0
100
AcDbPolyline
90
4
70
1
43
0.0
10
8.100000007281805
20
-2.2799969063168417
10
8.100000007281805
20
-1.2799969063168408
10
8.3200000072818039
20
-1.2799969063168406
10
8.3200000072818039
20
-2.2799969063168417
0
LWPOLYLINE
5
102
100
AcDbEntity
8
0
100
AcDbPolyline
90
4
70
1
43
0.0
10
7.6000000072818041
20
-1.879996874916678
10
7.000000154225491
20
-1.879996874916678
10
7.000000154225491
20
-1.6599968749166603
10
7.6000000072818041
20
-1.6599968749166603
0
LWPOLYLINE
5
103
100
AcDbEntity
8
0
100
AcDbPolyline
90
4
70
1
43
0.0
10
8.100000007281805
20
-3.7799968188347535
10
8.100000007281805
20
-3.999996818834771
10
7.6000001073621641
20
-3.9999968188347719
10
7.6000001073621641
20
-3.7799968188347535
0
CIRCLE
5
104
100
AcDbEntity
8
0
100
AcDbCircle
10
6.9609997965945265
20
3.3209998601508888
30
0
40
0.06250000000000544
210
0
220
-0
230
1
0
LWPOLYLINE
5
105
100
AcDbEntity
8
0
100
AcDbPolyline
90
4
70
1
43
0.0
10
7.6000000072818041
20
4.2230029128468187
10
7.0000000072818045
20
4.2230029128468187
10
7.0000000072818045
20
4.3400029128468285
10
7.6000000072818041
20
4.3400029128468285
0
CIRCLE
5
106
100
AcDbEntity
8
0
100
AcDbCircle
10
6.9609997965945274
20
-3.3189969587405637
30
0
40
0.062500000000004038
210
0
220
-0
230
1
0
ENDSEC
0
SECTION
2
OBJECTS
0
DICTIONARY
5
C
100
AcDbDictionary
3
ACAD_GROUP
350
D
3
ACAD_MLINESTYLE
350
17
0
DICTIONARY
5
D
100
AcDbDictionary
0
DICTIONARY
5
1A
330
C
100
AcDbDictionary
0
DICTIONARY
5
17
100
AcDbDictionary
0
ENDSEC
0
EOF
