0
SECTION
2
HEADER
9
$INSUNITS
70
1
9
$ACADVER
1
AC1014
9
$HANDSEED
5
FFFF
0
ENDSEC
0
SECTION
2
TABLES
0
TABLE
2
VPORT
5
8
100
AcDbSymbolTable
0
ENDTAB
0
TABLE
2
LTYPE
5
5
100
AcDbSymbolTable
0
LTYPE
5
14
100
AcDbSymbolTableRecord
100
AcDbLinetypeTableRecord
2
BYBLOCK
70
0
0
LTYPE
5
15
100
AcDbSymbolTableRecord
100
AcDbLinetypeTableRecord
2
BYLAYER
70
0
0
LTYPE
5
16
100
AcDbSymbolTableRecord
100
AcDbLinetypeTableRecord
2
DASHED
70
0
3
Dashed __ __ __ __ __ __ __ __ __ __ __ __ __ _
72
65
73
2
40
0.75
49
0.5
74
0
49
-0.25
74
0
0
ENDTAB
0
TABLE
2
LAYER
5
2
100
AcDbSymbolTable
70
2
0
LAYER
5
50
100
AcDbSymbolTableRecord
100
AcDbLayerTableRecord
2
0
70
0
62
7
6
CONTINUOUS
0
ENDTAB
0
TABLE
2
STYLE
5
3
100
AcDbSymbolTable
70
1
0
STYLE
5
11
100
AcDbSymbolTableRecord
100
AcDbTextStyleTableRecord
2
STANDARD
70
0
0
ENDTAB
0
TABLE
2
VIEW
5
6
100
AcDbSymbolTable
70
0
0
ENDTAB
0
TABLE
2
UCS
5
7
100
AcDbSymbolTable
70
0
0
ENDTAB
0
TABLE
2
APPID
5
9
100
AcDbSymbolTable
70
2
0
APPID
5
12
100
AcDbSymbolTableRecord
100
AcDbRegAppTableRecord
2
ACAD
70
0
0
ENDTAB
0
TABLE
2
DIMSTYLE
5
A
100
AcDbSymbolTable
70
1
0
ENDTAB
0
TABLE
2
BLOCK_RECORD
5
1
100
AcDbSymbolTable
70
1
0
BLOCK_RECORD
5
1F
100
AcDbSymbolTableRecord
100
AcDbBlockTableRecord
2
*MODEL_SPACE
0
BLOCK_RECORD
5
1B
100
AcDbSymbolTableRecord
100
AcDbBlockTableRecord
2
*PAPER_SPACE
0
ENDTAB
0
ENDSEC
0
SECTION
2
BLOCKS
0
BLOCK
5
20
100
AcDbEntity
100
AcDbBlockBegin
2
*MODEL_SPACE
0
ENDBLK
5
21
100
AcDbEntity
100
AcDbBlockEnd
0
BLOCK
5
1C
100
AcDbEntity
100
AcDbBlockBegin
2
*PAPER_SPACE
0
ENDBLK
5
1D
100
AcDbEntity
100
AcDbBlockEnd
0
ENDSEC
0
SECTION
2
ENTITIES
0
CIRCLE
5
100
100
AcDbEntity
8
0
100
AcDbCircle
10
7.5802312620476302
20
4.93065245104808
30
0
40
0.10000000000000052
210
0
220
0
230
1
0
LWPOLYLINE
5
101
100
AcDbEntity
8
0
100
AcDbPolyline
90
8
70
1
43
0.0
10
7.5425198703006631
20
5.1286487312452902
10
7.0574805002219234
20
5.1286487312452902
42
-0.41421356237309509
10
7.0074805002219236
20
5.17864873124529
10
7.0074805002219218
20
6.0593573926626147
42
-0.41421356237309093
10
7.0574805002219234
20
6.1093573926626146
10
7.5425198703006631
20
6.1093573926626128
42
-0.41421356237309509
10
7.592519870300662
20
6.0593573926626139
10
7.5925198703006638
20
5.17864873124529
42
-0.41421356237309093
0
CIRCLE
5
102
100
AcDbEntity
8
0
100
AcDbCircle
10
7.6802312620476201
20
6.5306524510480841
30
0
40
0.040000000000000487
210
0
220
0
230
1
0
CIRCLE
5
103
100
AcDbEntity
8
0
100
AcDbCircle
10
7.6552312620476268
20
4.730652451048079
30
0
40
0.040000000000000487
210
0
220
0
230
1
0
CIRCLE
5
104
100
AcDbEntity
8
0
100
AcDbCircle
10
6.9552312620476293
20
4.7306524510480763
30
0
40
0.040000000000000487
210
0
220
0
230
1
0
CIRCLE
5
105
100
AcDbEntity
8
0
100
AcDbCircle
10
6.9277509470869933
20
6.5306524510480806
30
0
40
0.040000000000000487
210
0
220
0
230
1
0
CIRCLE
5
106
100
AcDbEntity
8
0
100
AcDbCircle
10
7.0480002116843847
20
2.5190030637007514
30
0
40
0.045000000000000026
210
0
220
0
230
1
0
CIRCLE
5
107
100
AcDbEntity
8
0
100
AcDbCircle
10
7.3000001852613012
20
2.0190030619539479
30
0
40
0.11800000000000024
210
0
220
0
230
1
0
CIRCLE
5
108
100
AcDbEntity
8
0
100
AcDbCircle
10
7.3000001852613012
20
1.5190030619539483
30
0
40
0.11800000000000024
210
0
220
0
230
1
0
CIRCLE
5
109
100
AcDbEntity
8
0
100
AcDbCircle
10
7.0480002116843847
20
2.0190030637007514
30
0
40
0.045000000000000026
210
0
220
0
230
1
0
CIRCLE
5
110
100
AcDbEntity
8
0
100
AcDbCircle
10
7.3000001852613012
20
2.5190030619539479
30
0
40
0.11800000000000024
210
0
220
0
230
1
0
CIRCLE
5
111
100
AcDbEntity
8
0
100
AcDbCircle
10
7.0480002116843847
20
1.5190030637007517
30
0
40
0.045000000000000026
210
0
220
0
230
1
0
LWPOLYLINE
5
112
100
AcDbEntity
8
0
100
AcDbPolyline
90
20
70
1
43
0.0
10
7.0100002074429337
20
0.23000322888258992
10
7.0100002074429355
20
3.2288826085736299e-06
10
7.5900001073621626
20
3.2288826085724242e-06
10
7.5900001073621626
20
0.23000322888258992
10
8.1000000072818032
20
0.23000322888258992
10
8.1000000072818032
20
0
10
8.6000000072818032
20
0
10
8.6000000072818032
20
0.23000322888258992
10
9.1000000072818015
20
0.23000322888258992
10
9.1000000072818015
20
6.9890030619537153
10
8.6000000072818032
20
6.9890030619537127
10
8.6000000072818032
20
7.2190030619536936
10
8.1000000072818032
20
7.2190030619536936
10
8.1000000072818032
20
6.9890030619537127
10
7.5900002074429347
20
6.9890030619537109
10
7.5900002074429347
20
7.2190030619536927
10
7.0100002074429355
20
7.2190030619536927
10
7.0100002074429337
20
6.9890030619537127
10
6.5000002069138825
20
6.9890030619537109
10
6.4999998493268825
20
0.23000322888259017
0
ENDSEC
0
SECTION
2
OBJECTS
0
DICTIONARY
5
C
100
AcDbDictionary
3
ACAD_GROUP
350
D
3
ACAD_MLINESTYLE
350
17
0
DICTIONARY
5
D
100
AcDbDictionary
0
DICTIONARY
5
1A
330
C
100
AcDbDictionary
0
DICTIONARY
5
17
100
AcDbDictionary
0
ENDSEC
0
EOF
