0
SECTION
2
HEADER
9
$INSUNITS
70
1
9
$ACADVER
1
AC1014
9
$HANDSEED
5
FFFF
0
ENDSEC
0
SECTION
2
TABLES
0
TABLE
2
VPORT
5
8
100
AcDbSymbolTable
0
ENDTAB
0
TABLE
2
LTYPE
5
5
100
AcDbSymbolTable
0
LTYPE
5
14
100
AcDbSymbolTableRecord
100
AcDbLinetypeTableRecord
2
BYBLOCK
70
0
0
LTYPE
5
15
100
AcDbSymbolTableRecord
100
AcDbLinetypeTableRecord
2
BYLAYER
70
0
0
LTYPE
5
16
100
AcDbSymbolTableRecord
100
AcDbLinetypeTableRecord
2
DASHED
70
0
3
Dashed __ __ __ __ __ __ __ __ __ __ __ __ __ _
72
65
73
2
40
0.75
49
0.5
74
0
49
-0.25
74
0
0
ENDTAB
0
TABLE
2
LAYER
5
2
100
AcDbSymbolTable
70
3
0
LAYER
5
50
100
AcDbSymbolTableRecord
100
AcDbLayerTableRecord
2
1
70
0
62
7
6
DASHED
0
LAYER
5
51
100
AcDbSymbolTableRecord
100
AcDbLayerTableRecord
2
0
70
0
62
7
6
CONTINUOUS
0
ENDTAB
0
TABLE
2
STYLE
5
3
100
AcDbSymbolTable
70
1
0
STYLE
5
11
100
AcDbSymbolTableRecord
100
AcDbTextStyleTableRecord
2
STANDARD
70
0
0
ENDTAB
0
TABLE
2
VIEW
5
6
100
AcDbSymbolTable
70
0
0
ENDTAB
0
TABLE
2
UCS
5
7
100
AcDbSymbolTable
70
0
0
ENDTAB
0
TABLE
2
APPID
5
9
100
AcDbSymbolTable
70
2
0
APPID
5
12
100
AcDbSymbolTableRecord
100
AcDbRegAppTableRecord
2
ACAD
70
0
0
ENDTAB
0
TABLE
2
DIMSTYLE
5
A
100
AcDbSymbolTable
70
1
0
ENDTAB
0
TABLE
2
BLOCK_RECORD
5
1
100
AcDbSymbolTable
70
1
0
BLOCK_RECORD
5
1F
100
AcDbSymbolTableRecord
100
AcDbBlockTableRecord
2
*MODEL_SPACE
0
BLOCK_RECORD
5
1B
100
AcDbSymbolTableRecord
100
AcDbBlockTableRecord
2
*PAPER_SPACE
0
ENDTAB
0
ENDSEC
0
SECTION
2
BLOCKS
0
BLOCK
5
20
100
AcDbEntity
100
AcDbBlockBegin
2
*MODEL_SPACE
0
ENDBLK
5
21
100
AcDbEntity
100
AcDbBlockEnd
0
BLOCK
5
1C
100
AcDbEntity
100
AcDbBlockBegin
2
*PAPER_SPACE
0
ENDBLK
5
1D
100
AcDbEntity
100
AcDbBlockEnd
0
ENDSEC
0
SECTION
2
ENTITIES
0
LWPOLYLINE
5
100
100
AcDbEntity
8
0
100
AcDbPolyline
90
4
70
1
43
0.0
10
7.0500001397379357
20
5.7777638776235962
10
7.0500001397379357
20
5.660763877623606
10
6.750000139737935
20
5.660763877623606
10
6.750000139737935
20
5.7777638776235962
0
LWPOLYLINE
5
101
100
AcDbEntity
8
0
100
AcDbPolyline
90
4
70
1
43
0.0
10
7.6500001397379354
20
5.7777638776235962
10
7.6500001397379354
20
5.660763877623606
10
7.3500001397379355
20
5.660763877623606
10
7.3500001397379355
20
5.7777638776235962
0
CIRCLE
5
102
100
AcDbEntity
8
0
100
AcDbCircle
10
7.6499999999999968
20
5.5420435561948445
30
0
40
0.063393548203858813
210
0
220
-0
230
1
0
LWPOLYLINE
5
103
100
AcDbEntity
8
0
100
AcDbPolyline
90
8
70
1
43
0.0
10
7.7513385826771657
20
6.2631968936959632
10
7.7513385826771595
20
6.0324882322786868
42
-0.41421356237309509
10
7.7013385826771641
20
5.9824882322786905
10
6.7777165354330702
20
5.982488232278687
42
-0.41421356237309509
10
6.7277165354330704
20
6.0324882322786868
10
6.7277165354330757
20
6.2631968936959623
42
-0.41421356237309509
10
6.7777165354330711
20
6.3131968936959586
10
7.7013385826771659
20
6.313196893695963
42
-0.41421356237309509
0
CIRCLE
5
104
100
AcDbEntity
8
0
100
AcDbCircle
10
7.0480002116843847
20
5.0190030637001009
30
0
40
0.045000000000000026
210
0
220
-0
230
1
0
CIRCLE
5
105
100
AcDbEntity
8
0
100
AcDbCircle
10
7.3000001852613012
20
4.0190030619533772
30
0
40
0.11800000000000024
210
0
220
-0
230
1
0
CIRCLE
5
106
100
AcDbEntity
8
0
100
AcDbCircle
10
7.3000001852613012
20
5.0190030619532982
30
0
40
0.11800000000000024
210
0
220
-0
230
1
0
CIRCLE
5
107
100
AcDbEntity
8
0
100
AcDbCircle
10
7.0480002116843847
20
4.5190030637001408
30
0
40
0.045000000000000026
210
0
220
-0
230
1
0
CIRCLE
5
108
100
AcDbEntity
8
0
100
AcDbCircle
10
7.0480002116843847
20
4.0190030637001808
30
0
40
0.045000000000000026
210
0
220
-0
230
1
0
CIRCLE
5
109
100
AcDbEntity
8
0
100
AcDbCircle
10
7.3000001852613012
20
4.5190030619533372
30
0
40
0.11800000000000024
210
0
220
-0
230
1
0
LWPOLYLINE
5
110
100
AcDbEntity
8
0
100
AcDbPolyline
90
12
70
1
43
0.0
10
7.0000002074429366
20
3.2288820376955784e-06
10
7.6000001073621641
20
3.2288820376955776e-06
10
7.6000001073621641
20
0.22000322888202029
10
8.100000007281805
20
0.22000322888202026
10
8.100000007281805
20
6.9990030619531405
10
7.6000002074429363
20
6.9990030619531396
10
7.6000002074429363
20
7.2190030619531234
10
7.0000002074429366
20
7.2190030619531234
10
7.0000002074429366
20
6.9990030619531405
10
6.5000002074429366
20
6.9990030619531396
10
6.4999998487978301
20
0.22000322888202042
10
7.0000002074429366
20
0.22000322888202029
0
ENDSEC
0
SECTION
2
OBJECTS
0
DICTIONARY
5
C
100
AcDbDictionary
3
ACAD_GROUP
350
D
3
ACAD_MLINESTYLE
350
17
0
DICTIONARY
5
D
100
AcDbDictionary
0
DICTIONARY
5
1A
330
C
100
AcDbDictionary
0
DICTIONARY
5
17
100
AcDbDictionary
0
ENDSEC
0
EOF
