0
SECTION
2
HEADER
9
$INSUNITS
70
1
9
$ACADVER
1
AC1014
9
$HANDSEED
5
FFFF
0
ENDSEC
0
SECTION
2
TABLES
0
TABLE
2
VPORT
5
8
100
AcDbSymbolTable
0
ENDTAB
0
TABLE
2
LTYPE
5
5
100
AcDbSymbolTable
0
LTYPE
5
14
100
AcDbSymbolTableRecord
100
AcDbLinetypeTableRecord
2
BYBLOCK
70
0
0
LTYPE
5
15
100
AcDbSymbolTableRecord
100
AcDbLinetypeTableRecord
2
BYLAYER
70
0
0
LTYPE
5
16
100
AcDbSymbolTableRecord
100
AcDbLinetypeTableRecord
2
DASHED
70
0
3
Dashed __ __ __ __ __ __ __ __ __ __ __ __ __ _
72
65
73
2
40
0.75
49
0.5
74
0
49
-0.25
74
0
0
ENDTAB
0
TABLE
2
LAYER
5
2
100
AcDbSymbolTable
70
3
0
LAYER
5
50
100
AcDbSymbolTableRecord
100
AcDbLayerTableRecord
2
1
70
0
62
7
6
DASHED
0
LAYER
5
51
100
AcDbSymbolTableRecord
100
AcDbLayerTableRecord
2
0
70
0
62
7
6
CONTINUOUS
0
ENDTAB
0
TABLE
2
STYLE
5
3
100
AcDbSymbolTable
70
1
0
STYLE
5
11
100
AcDbSymbolTableRecord
100
AcDbTextStyleTableRecord
2
STANDARD
70
0
0
ENDTAB
0
TABLE
2
VIEW
5
6
100
AcDbSymbolTable
70
0
0
ENDTAB
0
TABLE
2
UCS
5
7
100
AcDbSymbolTable
70
0
0
ENDTAB
0
TABLE
2
APPID
5
9
100
AcDbSymbolTable
70
2
0
APPID
5
12
100
AcDbSymbolTableRecord
100
AcDbRegAppTableRecord
2
ACAD
70
0
0
ENDTAB
0
TABLE
2
DIMSTYLE
5
A
100
AcDbSymbolTable
70
1
0
ENDTAB
0
TABLE
2
BLOCK_RECORD
5
1
100
AcDbSymbolTable
70
1
0
BLOCK_RECORD
5
1F
100
AcDbSymbolTableRecord
100
AcDbBlockTableRecord
2
*MODEL_SPACE
0
BLOCK_RECORD
5
1B
100
AcDbSymbolTableRecord
100
AcDbBlockTableRecord
2
*PAPER_SPACE
0
ENDTAB
0
ENDSEC
0
SECTION
2
BLOCKS
0
BLOCK
5
20
100
AcDbEntity
100
AcDbBlockBegin
2
*MODEL_SPACE
0
ENDBLK
5
21
100
AcDbEntity
100
AcDbBlockEnd
0
BLOCK
5
1C
100
AcDbEntity
100
AcDbBlockBegin
2
*PAPER_SPACE
0
ENDBLK
5
1D
100
AcDbEntity
100
AcDbBlockEnd
0
ENDSEC
0
SECTION
2
ENTITIES
0
LWPOLYLINE
5
100
100
AcDbEntity
8
0
100
AcDbPolyline
90
42
70
1
43
0.0
10
-6.5000000122972317
20
4.3400000372261536
42
0.41421356905035406
10
-6.7200000122972323
20
4.5600000422415619
10
-7.8800000072818026
20
4.560000042241561
42
0.41421356237315282
10
-8.1000000072818032
20
4.340000042241579
10
-8.100000007281805
20
1.8151181087372004
10
-7.981889771061331
20
1.8151181087372001
10
-7.981889771061331
20
1.8859842504694708
10
-7.8874015820849541
20
1.8859842504694708
10
-7.887401582084923
20
1.8151181087372081
10
-7.8401574875967341
20
1.8151181087371997
10
-7.8401574875967643
20
1.7048818882647678
10
-7.8874015820849541
20
1.7048818882647681
10
-7.8874015820849541
20
1.6340157465324832
10
-7.981889771061331
20
1.6340157465324832
10
-7.981889771061331
20
1.7048818882647681
10
-8.100000007281805
20
1.7048818882647681
10
-8.1000000827330414
20
-1.1448788200551894
10
-7.9818898465125683
20
-1.1448788263094429
10
-7.9818898427600153
20
-1.0740126845771578
10
-7.8874016537836384
20
-1.0740126895805611
10
-7.8874016575361905
20
-1.1448788313128462
10
-7.8401575630480016
20
-1.1448788338145472
10
-7.8401575688852745
20
-1.2551150542869793
10
-7.8874016633734954
20
-1.2551150517852863
10
-7.8874016671260474
20
-1.3259811935175485
10
-7.9818898561024252
20
-1.3259811885141457
10
-7.9818898523498722
20
-1.255115046781875
10
-8.1000000885703454
20
-1.2551150405276212
10
-8.100000007281805
20
-3.7799996894387204
10
-7.6000001073621641
20
-3.7799996894387204
10
-7.6000001073621641
20
-3.9999996894387033
10
-7.0000002074429366
20
-3.9999996894387033
10
-7.0000002074429366
20
-3.7799996894387204
10
-6.5000001974120813
20
-3.7799996894387111
10
-6.5000000739230606
20
-1.7799996456978502
10
-6.2800000739230608
20
-1.7799996410858829
10
-6.2800000948865495
20
-0.77999964108596209
10
-6.5000000948865502
20
-0.77999964569792968
10
-6.5000001275895798
20
0.7799997274746705
10
-6.28000012758958
20
0.77999973208663809
10
-6.2800001485530696
20
1.779999732086559
10
-6.5000001485530694
20
1.7799997274745909
0
LWPOLYLINE
5
101
100
AcDbEntity
8
0
100
AcDbPolyline
90
4
70
1
43
0.0
10
-7.6000000072818041
20
4.3400000422415781
10
-7.0000000072818045
20
4.3400000422415781
10
-7.0000000072818045
20
4.223000042241587
10
-7.6000000072818041
20
4.223000042241587
0
CIRCLE
5
102
100
AcDbEntity
8
0
100
AcDbCircle
10
-6.9609997965945274
20
-3.318999829344603
30
0
40
0.062499999999999098
210
-0
220
0
230
1
0
CIRCLE
5
103
100
AcDbEntity
8
0
100
AcDbCircle
10
-6.9609997965945265
20
3.3209969895458
30
0
40
0.062500000000000486
210
-0
220
0
230
1
0
ENDSEC
0
SECTION
2
OBJECTS
0
DICTIONARY
5
C
100
AcDbDictionary
3
ACAD_GROUP
350
D
3
ACAD_MLINESTYLE
350
17
0
DICTIONARY
5
D
100
AcDbDictionary
0
DICTIONARY
5
1A
330
C
100
AcDbDictionary
0
DICTIONARY
5
17
100
AcDbDictionary
0
ENDSEC
0
EOF
