0
SECTION
2
HEADER
9
$INSUNITS
70
1
9
$ACADVER
1
AC1014
9
$HANDSEED
5
FFFF
0
ENDSEC
0
SECTION
2
TABLES
0
TABLE
2
VPORT
5
8
100
AcDbSymbolTable
0
ENDTAB
0
TABLE
2
LTYPE
5
5
100
AcDbSymbolTable
0
LTYPE
5
14
100
AcDbSymbolTableRecord
100
AcDbLinetypeTableRecord
2
BYBLOCK
70
0
0
LTYPE
5
15
100
AcDbSymbolTableRecord
100
AcDbLinetypeTableRecord
2
BYLAYER
70
0
0
LTYPE
5
16
100
AcDbSymbolTableRecord
100
AcDbLinetypeTableRecord
2
DASHED
70
0
3
Dashed __ __ __ __ __ __ __ __ __ __ __ __ __ _
72
65
73
2
40
0.75
49
0.5
74
0
49
-0.25
74
0
0
ENDTAB
0
TABLE
2
LAYER
5
2
100
AcDbSymbolTable
70
2
0
LAYER
5
50
100
AcDbSymbolTableRecord
100
AcDbLayerTableRecord
2
0
70
0
62
7
6
CONTINUOUS
0
ENDTAB
0
TABLE
2
STYLE
5
3
100
AcDbSymbolTable
70
1
0
STYLE
5
11
100
AcDbSymbolTableRecord
100
AcDbTextStyleTableRecord
2
STANDARD
70
0
0
ENDTAB
0
TABLE
2
VIEW
5
6
100
AcDbSymbolTable
70
0
0
ENDTAB
0
TABLE
2
UCS
5
7
100
AcDbSymbolTable
70
0
0
ENDTAB
0
TABLE
2
APPID
5
9
100
AcDbSymbolTable
70
2
0
APPID
5
12
100
AcDbSymbolTableRecord
100
AcDbRegAppTableRecord
2
ACAD
70
0
0
ENDTAB
0
TABLE
2
DIMSTYLE
5
A
100
AcDbSymbolTable
70
1
0
ENDTAB
0
TABLE
2
BLOCK_RECORD
5
1
100
AcDbSymbolTable
70
1
0
BLOCK_RECORD
5
1F
100
AcDbSymbolTableRecord
100
AcDbBlockTableRecord
2
*MODEL_SPACE
0
BLOCK_RECORD
5
1B
100
AcDbSymbolTableRecord
100
AcDbBlockTableRecord
2
*PAPER_SPACE
0
ENDTAB
0
ENDSEC
0
SECTION
2
BLOCKS
0
BLOCK
5
20
100
AcDbEntity
100
AcDbBlockBegin
2
*MODEL_SPACE
0
ENDBLK
5
21
100
AcDbEntity
100
AcDbBlockEnd
0
BLOCK
5
1C
100
AcDbEntity
100
AcDbBlockBegin
2
*PAPER_SPACE
0
ENDBLK
5
1D
100
AcDbEntity
100
AcDbBlockEnd
0
ENDSEC
0
SECTION
2
ENTITIES
0
LWPOLYLINE
5
100
100
AcDbEntity
8
0
100
AcDbPolyline
90
45
70
1
43
0.0
10
-8.4400000072818049
20
0.4000030077092665
10
-7.5199999705957055
20
0.40000300770926639
42
0.41421356237309226
10
-7.4199999705957049
20
0.50000300770926642
10
-7.4199999705956943
20
1.8800030077092502
42
-0.99999999999999989
10
-7.1799999705957047
20
1.8800030077092831
10
-7.1799999705956941
20
-1.3199969922907502
42
-0.99999999999999989
10
-7.4199999705957049
20
-1.3199969922907167
10
-7.4199999705957049
20
0.060003007709266275
42
0.41421356237308626
10
-7.5199999705957046
20
0.16000300770926656
10
-8.4400000072818031
20
0.16000300770926637
42
0.41421356237309209
10
-8.5400000072818045
20
0.060003007709266275
10
-8.5400000072818045
20
-2.5300005335918341
42
0.41421356237309093
10
-8.4400000072818031
20
-2.6300005335918386
10
-7.5868543856465385
20
-2.6300005335918333
42
-2.7342719282326144
10
-7.5868543856465456
20
-3.030000533591874
10
-8.4400000072818031
20
-3.030000533591874
42
0.41421356237308993
10
-8.5400000072818063
20
-3.1300005335918812
10
-8.5400000072818045
20
-3.9999969063168166
42
0.41421356237309315
10
-8.3200000072818039
20
-4.2199969063168243
10
-6.7200002024275092
20
-4.2199969063168332
42
0.40095749196692898
10
-6.5002275926691402
20
-4.0099969063168173
10
-7.0100002074429364
20
-4.0099969063168173
10
-7.0100002074429364
20
-3.7699969063167984
10
-6.5000001971841064
20
-3.7699969063167984
10
-6.5000001816819477
20
-3.0899999930820812
10
-6.2800002074429369
20
-3.0899999930820812
10
-6.2800002074429369
20
-2.8100000000000107
10
-6.5000001752986778
20
-2.8099999861641098
10
-6.5000001360871575
20
-1.0900000100308271
10
-6.2800002074429369
20
-1.0899999999999761
10
-6.2800002074429369
20
-0.81000000501538083
10
-6.500000129703885
20
-0.81000000501538083
10
-6.5000000904923647
20
0.91000000000003822
10
-6.2800002074429369
20
0.910000000000038
10
-6.2800002074429369
20
1.1900000023060406
10
-6.5000000841090939
20
1.1900000023060406
10
-6.5000000448975719
20
2.9099999899691871
10
-6.2800002074429369
20
2.9100000000000334
10
-6.2800002074429369
20
3.1900000000000568
10
-6.5000000385143002
20
3.1900000000000559
10
-6.5000000122972299
20
4.3400028203493575
42
0.41421356905029716
10
-6.7200000122972305
20
4.5600028253647933
10
-8.3200000072818039
20
4.5600028253648022
42
0.41421356237309592
10
-8.5400000072818116
20
4.3400028253647838
10
-8.5400000072818045
20
0.50000300770926609
42
0.41421356237308499
0
LWPOLYLINE
5
101
100
AcDbEntity
8
0
100
AcDbPolyline
90
4
70
1
43
0.0
10
-8.0900000072818035
20
1.2700001404154628
10
-8.3300000072818037
20
1.2700001404154628
10
-8.3300000072818037
20
2.2900001404154628
10
-8.0900000072818035
20
2.2900001404154628
0
LWPOLYLINE
5
102
100
AcDbEntity
8
0
100
AcDbPolyline
90
4
70
1
43
0.0
10
-8.3300000072818037
20
-2.2899969063168411
10
-8.3300000072818037
20
-1.2699969063168408
10
-8.0900000072818035
20
-1.2699969063168408
10
-8.0900000072818035
20
-2.2899969063168411
0
LWPOLYLINE
5
103
100
AcDbEntity
8
0
100
AcDbPolyline
90
4
70
1
43
0.0
10
-6.9900001542254895
20
-1.8899969623841673
10
-7.610000007281803
20
-1.8899969623841673
10
-7.610000007281803
20
-1.6499969623841482
10
-6.9900001542254895
20
-1.6499969623841482
0
CIRCLE
5
104
100
AcDbEntity
8
0
100
AcDbCircle
10
-6.9609997965945265
20
3.3209997726688449
30
0
40
0.06250000000000544
210
0
220
-0
230
1
0
LWPOLYLINE
5
105
100
AcDbEntity
8
0
100
AcDbPolyline
90
4
70
1
43
0.0
10
-6.9900000072818038
20
4.2130028253647733
10
-7.610000007281803
20
4.2130028253647733
10
-7.610000007281803
20
4.3500028253647836
10
-6.9900000072818038
20
4.3500028253647844
0
CIRCLE
5
106
100
AcDbEntity
8
0
100
AcDbCircle
10
-6.9609997965945274
20
-3.3189970462226079
30
0
40
0.062500000000004038
210
0
220
-0
230
1
0
LWPOLYLINE
5
107
100
AcDbEntity
8
0
100
AcDbPolyline
90
4
70
1
43
0.0
10
-8.1100000072818048
20
-3.7699969063167984
10
-7.6000001073621641
20
-3.7699969063167984
10
-7.6000001073621641
20
-4.0099969063168173
10
-8.1100000072818048
20
-4.0099969063168173
0
ENDSEC
0
SECTION
2
OBJECTS
0
DICTIONARY
5
C
100
AcDbDictionary
3
ACAD_GROUP
350
D
3
ACAD_MLINESTYLE
350
17
0
DICTIONARY
5
D
100
AcDbDictionary
0
DICTIONARY
5
1A
330
C
100
AcDbDictionary
0
DICTIONARY
5
17
100
AcDbDictionary
0
ENDSEC
0
EOF
