0
SECTION
2
HEADER
9
$INSUNITS
70
1
9
$ACADVER
1
AC1014
9
$HANDSEED
5
FFFF
0
ENDSEC
0
SECTION
2
TABLES
0
TABLE
2
VPORT
5
8
100
AcDbSymbolTable
0
ENDTAB
0
TABLE
2
LTYPE
5
5
100
AcDbSymbolTable
0
LTYPE
5
14
100
AcDbSymbolTableRecord
100
AcDbLinetypeTableRecord
2
BYBLOCK
70
0
0
LTYPE
5
15
100
AcDbSymbolTableRecord
100
AcDbLinetypeTableRecord
2
BYLAYER
70
0
0
LTYPE
5
16
100
AcDbSymbolTableRecord
100
AcDbLinetypeTableRecord
2
DASHED
70
0
3
Dashed __ __ __ __ __ __ __ __ __ __ __ __ __ _
72
65
73
2
40
0.75
49
0.5
74
0
49
-0.25
74
0
0
ENDTAB
0
TABLE
2
LAYER
5
2
100
AcDbSymbolTable
70
3
0
LAYER
5
50
100
AcDbSymbolTableRecord
100
AcDbLayerTableRecord
2
1
70
0
62
7
6
DASHED
0
LAYER
5
51
100
AcDbSymbolTableRecord
100
AcDbLayerTableRecord
2
0
70
0
62
7
6
CONTINUOUS
0
ENDTAB
0
TABLE
2
STYLE
5
3
100
AcDbSymbolTable
70
1
0
STYLE
5
11
100
AcDbSymbolTableRecord
100
AcDbTextStyleTableRecord
2
STANDARD
70
0
0
ENDTAB
0
TABLE
2
VIEW
5
6
100
AcDbSymbolTable
70
0
0
ENDTAB
0
TABLE
2
UCS
5
7
100
AcDbSymbolTable
70
0
0
ENDTAB
0
TABLE
2
APPID
5
9
100
AcDbSymbolTable
70
2
0
APPID
5
12
100
AcDbSymbolTableRecord
100
AcDbRegAppTableRecord
2
ACAD
70
0
0
ENDTAB
0
TABLE
2
DIMSTYLE
5
A
100
AcDbSymbolTable
70
1
0
ENDTAB
0
TABLE
2
BLOCK_RECORD
5
1
100
AcDbSymbolTable
70
1
0
BLOCK_RECORD
5
1F
100
AcDbSymbolTableRecord
100
AcDbBlockTableRecord
2
*MODEL_SPACE
0
BLOCK_RECORD
5
1B
100
AcDbSymbolTableRecord
100
AcDbBlockTableRecord
2
*PAPER_SPACE
0
ENDTAB
0
ENDSEC
0
SECTION
2
BLOCKS
0
BLOCK
5
20
100
AcDbEntity
100
AcDbBlockBegin
2
*MODEL_SPACE
0
ENDBLK
5
21
100
AcDbEntity
100
AcDbBlockEnd
0
BLOCK
5
1C
100
AcDbEntity
100
AcDbBlockBegin
2
*PAPER_SPACE
0
ENDBLK
5
1D
100
AcDbEntity
100
AcDbBlockEnd
0
ENDSEC
0
SECTION
2
ENTITIES
0
LWPOLYLINE
5
100
100
AcDbEntity
8
0
100
AcDbPolyline
90
4
70
1
43
0.0
10
2.2200000178271764
20
-0.30000009847834236
10
2.0000000178271766
20
-0.30000008727268873
10
2.0000000483880496
20
0.29999991272731047
10
2.2200000483880498
20
0.2999999015216569
0
CIRCLE
5
101
100
AcDbEntity
8
0
100
AcDbCircle
10
3.3189999836448627
20
0.46000001635514015
30
0
40
0.062499999999999799
210
0
220
-0
230
1
0
LWPOLYLINE
5
102
100
AcDbEntity
8
0
100
AcDbPolyline
90
4
70
1
43
0.0
10
-2.499999952026533
20
1.159999999999997
10
-1.4999999520265335
20
1.159999999999997
10
-1.4999999520265335
20
1.0499999999999974
10
-2.500000007036109
20
1.0499999999999972
0
CIRCLE
5
103
100
AcDbEntity
8
0
100
AcDbCircle
10
0
20
0
30
0
40
0.27559055118110237
210
0
220
-0
230
1
0
LWPOLYLINE
5
104
100
AcDbEntity
8
0
100
AcDbPolyline
90
8
70
1
43
0.0
10
-3.0000000070361064
20
2.7599999999999993
42
0.41421356237309093
10
-2.9000000070361063
20
2.6599999999999997
10
2.89999999296389
20
2.6599999999999997
42
0.41421356237309603
10
2.9999999929638901
20
2.7600000000000002
10
2.9999999929638901
20
6.759999999999998
42
0.41421356237310114
10
2.8999999929638896
20
6.8599999999999985
10
-2.9000000070361045
20
6.8599999999999985
42
0.41421356237309198
10
-3.0000000070361046
20
6.759999999999998
0
CIRCLE
5
105
100
AcDbEntity
8
0
100
AcDbCircle
10
3.14999999296389
20
2.5099999999999998
30
0
40
0.062499999999999799
210
0
220
-0
230
1
0
CIRCLE
5
106
100
AcDbEntity
8
0
100
AcDbCircle
10
-3.1500000070361063
20
2.5099999999999998
30
0
40
0.062499999999999799
210
0
220
-0
230
1
0
LWPOLYLINE
5
107
100
AcDbEntity
8
0
100
AcDbPolyline
90
4
70
1
43
0.0
10
1.4999999929638912
20
1.049999999999998
10
1.5000000479734639
20
1.1599999999999979
10
2.4999999929638914
20
1.1599999999999981
10
2.4999999929638923
20
1.0499999999999983
0
CIRCLE
5
108
100
AcDbEntity
8
0
100
AcDbCircle
10
2.4000000204686756
20
1.7849999999999964
30
0
40
0.15000000000000008
210
0
220
-0
230
1
0
LWPOLYLINE
5
109
100
AcDbEntity
8
0
100
AcDbPolyline
90
4
70
1
43
0.0
10
-1.9999999821728232
20
-0.29999998540311063
10
-2.2199999821728231
20
-0.29999998540311063
10
-2.2199999821728231
20
0.30000001459688935
10
-1.9999999821728232
20
0.30000001459688935
0
CIRCLE
5
110
100
AcDbEntity
8
0
100
AcDbCircle
10
-3.3189999978891622
20
7.6800000163551427
30
0
40
0.062499999999999799
210
0
220
-0
230
1
0
CIRCLE
5
111
100
AcDbEntity
8
0
100
AcDbCircle
10
-3.3189999836448627
20
0.46000001635514015
30
0
40
0.062499999999999799
210
0
220
-0
230
1
0
CIRCLE
5
112
100
AcDbEntity
8
0
100
AcDbCircle
10
7.0207733138813639e-08
20
7.501220456085802
30
0
40
0.062499999999999938
210
0
220
-0
230
1
0
CIRCLE
5
113
100
AcDbEntity
8
0
100
AcDbCircle
10
2.0468678414705348e-08
20
1.7849999999999964
30
0
40
0.14999999999999991
210
0
220
-0
230
1
0
LWPOLYLINE
5
114
100
AcDbEntity
8
0
100
AcDbPolyline
90
4
70
1
43
0.0
10
-0.5000000070361087
20
1.0499999999999976
10
-0.49999995202653469
20
1.1599999999999975
10
0.49999999296389164
20
1.1599999999999979
10
0.50000004797346431
20
1.0499999999999978
0
CIRCLE
5
115
100
AcDbEntity
8
0
100
AcDbCircle
10
3.3189999978891622
20
7.6800000163551427
30
0
40
0.062499999999999799
210
0
220
-0
230
1
0
CIRCLE
5
116
100
AcDbEntity
8
0
100
AcDbCircle
10
-2.3999999795313189
20
1.7849999999999964
30
0
40
0.15000000000000008
210
0
220
-0
230
1
0
CIRCLE
5
117
100
AcDbEntity
8
0
100
AcDbCircle
10
-3.1500000070361036
20
7.0100000000000007
30
0
40
0.062499999999999799
210
0
220
-0
230
1
0
CIRCLE
5
118
100
AcDbEntity
8
0
100
AcDbCircle
10
3.1499999929638913
20
7.0100000000000007
30
0
40
0.062499999999999799
210
0
220
-0
230
1
0
LWPOLYLINE
5
119
100
AcDbEntity
8
0
100
AcDbPolyline
90
52
70
1
43
0.0
10
1.5500001189741937
20
-0.62000000000000266
42
0.41421356237309553
10
1.5000001189741934
20
-0.67000000000000259
10
1.5000001189741938
20
-0.95000000000000284
42
0.41421356237309809
10
1.5500001189741943
20
-1.0000000000000027
10
4.0000001189741941
20
-1.0000000000000027
10
4.0000001189741941
20
-2.7974123455122052e-15
10
3.7800001954250333
20
-2.8848314813094615e-15
10
3.7800001883889229
20
0.46999999999999709
10
4.0000000479734554
20
0.46999999999999714
10
4.0000000479734545
20
0.68999999999999717
10
3.780000188388922
20
0.68999999999999717
10
3.7800001883889229
20
2.1599999999999917
10
4.0000001144630506
20
2.1599999822243716
10
4.0000001189069554
20
3.1599999999999957
10
3.7800001404154573
20
3.159999999999993
10
3.7800001404154577
20
4.1599999999999921
10
4.0000001233508611
20
4.1599999999999957
10
4.0000001277947659
20
5.1599999999999948
10
3.7800001404154573
20
5.1599999999999921
10
3.7800001404154573
20
6.1599999999999921
10
4.0000001322386716
20
6.1599999999999948
10
4.0000001366825764
20
7.159999999999993
10
3.7800001404154564
20
7.1599999999999904
10
3.7800001404154577
20
7.9999999999999964
10
-3.7800000000000011
20
7.9999999999999964
10
-3.7800000000000007
20
7.1599999999999904
10
-3.9999998810258028
20
7.1599999999999904
10
-3.9999999999999996
20
6.1599999999999939
10
-3.7799999999999998
20
6.1599999999999913
10
-3.7799999999999998
20
5.1599999999999913
10
-3.9999998810258028
20
5.1599999999999913
10
-3.9999999999999996
20
4.1599999999999948
10
-3.7799999999999998
20
4.1599999999999921
10
-3.7799999999999998
20
3.1599999999999921
10
-3.9999998810258028
20
3.1599999999999921
10
-3.9999999999999996
20
2.1599999999999921
10
-3.7799999999999994
20
2.1599999999999921
10
-3.7799999999999994
20
0.68999999999999717
10
-3.9999999520265326
20
0.68999999999999717
10
-3.9999999520265312
20
0.46999999999999714
10
-3.7799999520265319
20
0.46999999999999731
10
-3.779999952026535
20
-2.7974123455122052e-15
10
-3.9999998810258028
20
-2.7974123455122052e-15
10
-3.9999998810258051
20
-1.0000000000000027
10
1.2100001189741942
20
-1.0000000000000029
42
0.41421356237309304
10
1.2600001189741943
20
-0.95000000000000295
10
1.2600001189741934
20
-0.6700000000000027
42
0.41421356237309342
10
1.2100001189741936
20
-0.62000000000000288
10
0.93000012601030202
20
-0.62000000000000022
42
-0.99999999999999989
10
0.93000012601030202
20
-0.37999999999999989
10
1.7800001189741921
20
-0.38000000000000306
42
-0.99999999999999989
10
1.7800001189741921
20
-0.62000000000000233
0
ENDSEC
0
SECTION
2
OBJECTS
0
DICTIONARY
5
C
100
AcDbDictionary
3
ACAD_GROUP
350
D
3
ACAD_MLINESTYLE
350
17
0
DICTIONARY
5
D
100
AcDbDictionary
0
DICTIONARY
5
1A
330
C
100
AcDbDictionary
0
DICTIONARY
5
17
100
AcDbDictionary
0
ENDSEC
0
EOF
