0
SECTION
2
HEADER
9
$INSUNITS
70
1
9
$ACADVER
1
AC1014
9
$HANDSEED
5
FFFF
0
ENDSEC
0
SECTION
2
TABLES
0
TABLE
2
VPORT
5
8
100
AcDbSymbolTable
0
ENDTAB
0
TABLE
2
LTYPE
5
5
100
AcDbSymbolTable
0
LTYPE
5
14
100
AcDbSymbolTableRecord
100
AcDbLinetypeTableRecord
2
BYBLOCK
70
0
0
LTYPE
5
15
100
AcDbSymbolTableRecord
100
AcDbLinetypeTableRecord
2
BYLAYER
70
0
0
LTYPE
5
16
100
AcDbSymbolTableRecord
100
AcDbLinetypeTableRecord
2
DASHED
70
0
3
Dashed __ __ __ __ __ __ __ __ __ __ __ __ __ _
72
65
73
2
40
0.75
49
0.5
74
0
49
-0.25
74
0
0
ENDTAB
0
TABLE
2
LAYER
5
2
100
AcDbSymbolTable
70
2
0
LAYER
5
50
100
AcDbSymbolTableRecord
100
AcDbLayerTableRecord
2
0
70
0
62
7
6
CONTINUOUS
0
ENDTAB
0
TABLE
2
STYLE
5
3
100
AcDbSymbolTable
70
1
0
STYLE
5
11
100
AcDbSymbolTableRecord
100
AcDbTextStyleTableRecord
2
STANDARD
70
0
0
ENDTAB
0
TABLE
2
VIEW
5
6
100
AcDbSymbolTable
70
0
0
ENDTAB
0
TABLE
2
UCS
5
7
100
AcDbSymbolTable
70
0
0
ENDTAB
0
TABLE
2
APPID
5
9
100
AcDbSymbolTable
70
2
0
APPID
5
12
100
AcDbSymbolTableRecord
100
AcDbRegAppTableRecord
2
ACAD
70
0
0
ENDTAB
0
TABLE
2
DIMSTYLE
5
A
100
AcDbSymbolTable
70
1
0
ENDTAB
0
TABLE
2
BLOCK_RECORD
5
1
100
AcDbSymbolTable
70
1
0
BLOCK_RECORD
5
1F
100
AcDbSymbolTableRecord
100
AcDbBlockTableRecord
2
*MODEL_SPACE
0
BLOCK_RECORD
5
1B
100
AcDbSymbolTableRecord
100
AcDbBlockTableRecord
2
*PAPER_SPACE
0
ENDTAB
0
ENDSEC
0
SECTION
2
BLOCKS
0
BLOCK
5
20
100
AcDbEntity
100
AcDbBlockBegin
2
*MODEL_SPACE
0
ENDBLK
5
21
100
AcDbEntity
100
AcDbBlockEnd
0
BLOCK
5
1C
100
AcDbEntity
100
AcDbBlockBegin
2
*PAPER_SPACE
0
ENDBLK
5
1D
100
AcDbEntity
100
AcDbBlockEnd
0
ENDSEC
0
SECTION
2
ENTITIES
0
CIRCLE
5
100
100
AcDbEntity
8
0
100
AcDbCircle
10
1.8305000000000013
20
7.6700000371052628
30
0
40
0.062500000000005093
210
0
220
-0
230
1
0
CIRCLE
5
101
100
AcDbEntity
8
0
100
AcDbCircle
10
-3.5000003122475736
20
6.2410000397640149
30
0
40
0.062500000000004732
210
0
220
-0
230
1
0
CIRCLE
5
102
100
AcDbEntity
8
0
100
AcDbCircle
10
-3.0039999999999978
20
7.4150000371052629
30
0
40
0.062500000000005093
210
0
220
-0
230
1
0
CIRCLE
5
103
100
AcDbEntity
8
0
100
AcDbCircle
10
-1.8384999999999978
20
7.6700000371052628
30
0
40
0.062500000000005093
210
0
220
-0
230
1
0
CIRCLE
5
104
100
AcDbEntity
8
0
100
AcDbCircle
10
2.9960000000000013
20
7.4150000371052629
30
0
40
0.062500000000005093
210
0
220
-0
230
1
0
CIRCLE
5
105
100
AcDbEntity
8
0
100
AcDbCircle
10
-5.8737752453512018
20
2.1294996363870302
30
0
40
0.062500000000004732
210
0
220
-0
230
1
0
CIRCLE
5
106
100
AcDbEntity
8
0
100
AcDbCircle
10
-4.1694999999999975
20
7.6700000371052628
30
0
40
0.062500000000004732
210
0
220
-0
230
1
0
CIRCLE
5
107
100
AcDbEntity
8
0
100
AcDbCircle
10
-1.1262239818049533
20
2.1295004431410733
30
0
40
0.062500000000004899
210
0
220
-0
230
1
0
CIRCLE
5
108
100
AcDbEntity
8
0
100
AcDbCircle
10
4.1615000000000011
20
7.6700000371052628
30
0
40
0.062500000000004732
210
0
220
-0
230
1
0
LWPOLYLINE
5
109
100
AcDbEntity
8
0
100
AcDbPolyline
90
34
70
1
43
0.0
10
-9.5400000072818028
20
0.44000043740964778
42
0.4142134459054394
10
-9.3200000947638433
20
0.22000043740968045
10
-8.5900000072818035
20
0.22000014712831986
10
-8.5900000072818035
20
-4.7718031188707086e-08
10
-7.8100001073621659
20
-4.771803123867585e-08
10
-7.8100001073621659
20
0.2299999522819505
10
-6.9900002074429359
20
0.22999995228194997
10
-6.9900002074429359
20
-4.7718031975479311e-08
10
-6.2800000840332633
20
3.9765277007704636e-08
10
-6.2800000840332633
20
-0.99999996023456572
10
6.2699997647645622
20
-0.99999999212345381
10
6.2699997647645622
20
0.010000039765272736
10
6.4999997645642997
20
0.010000039765276157
10
6.4999997555524613
20
0.46000003976520337
10
6.2699997553521989
20
0.46000003976520015
10
6.2699997553521989
20
0.70000003976516401
10
6.4999997554162281
20
0.700000039765167
10
6.4999997647005348
20
2.1500000397649321
10
6.2699997648586914
20
2.1500000397649308
10
6.2699997552580742
20
3.1700000397647701
10
6.4999997554463187
20
3.1700000397647736
10
6.4999997646704424
20
4.1500000397646168
10
6.2699997648586914
20
4.150000039764616
10
6.2699997552580733
20
5.1700000397644557
10
6.4999997554463187
20
5.1700000397644592
10
6.4999997646704424
20
6.1500000397643024
10
6.2699997648586914
20
6.1500000397643024
10
6.2699997552580742
20
7.170000039764143
10
6.4999997554642475
20
7.1700000397641377
10
6.4999997647645653
20
8.0000000397640161
10
-6.499999851174092
20
8.0000000397640161
10
-6.499999851174092
20
7.4389997853530394
10
-9.3200000072818021
20
7.4389997853530367
42
0.41421356237314899
10
-9.5400000072818045
20
7.2189997853530548
0
LWPOLYLINE
5
110
100
AcDbEntity
8
0
100
AcDbPolyline
90
4
70
1
43
0.0
10
5.2699999135904774
20
1.1700000397650945
10
5.789999914222129
20
1.1700000397650949
10
5.789999914222129
20
1.0400000397651137
10
5.2699999135904774
20
1.0400000397651137
0
LWPOLYLINE
5
111
100
AcDbEntity
8
0
100
AcDbPolyline
90
4
70
1
43
0.0
10
-7.6100002074429369
20
6.9889997853530703
10
-7.6100002074429369
20
7.2289997853530483
10
-6.9900002074429359
20
7.228999785353051
10
-6.9900002074429359
20
6.988999785353073
0
LWPOLYLINE
5
112
100
AcDbEntity
8
0
100
AcDbPolyline
90
4
70
1
43
0.0
10
-6.2699998417617264
20
0.70000003976516401
10
-6.2699998417617273
20
0.46000003976520015
10
-6.5099998614951122
20
0.46000003976520365
10
-6.5099998741923866
20
0.70000003976516745
0
LWPOLYLINE
5
113
100
AcDbEntity
8
0
100
AcDbPolyline
90
4
70
1
43
0.0
10
4.5499999134824654
20
0.46000003976520337
10
4.54999991607475
20
0.70000003976516711
10
4.7899999160747493
20
0.700000039765167
10
4.7899999134824656
20
0.46000003976520337
0
CIRCLE
5
114
100
AcDbEntity
8
0
100
AcDbCircle
10
-5.818999749140497
20
7.6800000561192121
30
0
40
0.062499999999999799
210
-0
220
0
230
1
0
CIRCLE
5
115
100
AcDbEntity
8
0
100
AcDbCircle
10
-5.818999749140497
20
-0.31999994387952529
30
0
40
0.062499999999999799
210
-0
220
0
230
1
0
LWPOLYLINE
5
116
100
AcDbEntity
8
0
100
AcDbPolyline
90
4
70
1
43
0.0
10
-6.2699998512682171
20
5.1700000397644565
10
-6.2699998416676008
20
4.150000039764616
10
-6.5100000567157146
20
4.1500000397646168
10
-6.5100001106791332
20
5.1700000397644592
0
CIRCLE
5
117
100
AcDbEntity
8
0
100
AcDbCircle
10
5.817999983644861
20
0.46000005612034445
30
0
40
0.062499999999999799
210
-0
220
0
230
1
0
LWPOLYLINE
5
118
100
AcDbEntity
8
0
100
AcDbPolyline
90
4
70
1
43
0.0
10
-0.4300000849300552
20
0.23000003976524128
10
-0.43000008647384913
20
-0.0099999602347220877
10
-1.4500000864382356
20
-0.0099999602347221293
10
-1.4500000857491595
20
0.23000003976524119
0
CIRCLE
5
119
100
AcDbEntity
8
0
100
AcDbCircle
10
5.817999983644861
20
7.6800000561192032
30
0
40
0.062499999999999799
210
-0
220
0
230
1
0
LWPOLYLINE
5
120
100
AcDbEntity
8
0
100
AcDbPolyline
90
4
70
1
43
0.0
10
-6.2699998512682171
20
3.1700000397647714
10
-6.2699998416676008
20
2.1500000397649304
10
-6.5099999509050877
20
2.150000039764933
10
-6.5100000048685089
20
3.1700000397647727
0
CIRCLE
5
121
100
AcDbEntity
8
0
100
AcDbCircle
10
-3.499999846467909
20
3.5000000397647506
30
0
40
2.2399999999999998
210
-0
220
0
230
1
0
LWPOLYLINE
5
122
100
AcDbEntity
8
0
100
AcDbPolyline
90
5
70
1
43
0.0
10
-6.5100001625263388
20
6.1500000397643024
10
-6.5100002074429373
20
6.9989997848240142
10
-6.5100002074429373
20
7.1700000397641421
10
-6.2699998512682171
20
7.1700000397641377
10
-6.2699998416676008
20
6.1500000397643007
0
LWPOLYLINE
5
123
100
AcDbEntity
8
0
100
AcDbPolyline
90
4
70
1
43
0.0
10
-3.4300000864824107
20
0.23000003976524128
10
-3.4300000847331593
20
-0.0099999602347220877
10
-4.4500000865175355
20
-0.0099999602347221293
10
-4.4500000839252492
20
0.23000003976524119
0
LWPOLYLINE
5
124
100
AcDbEntity
8
0
100
AcDbPolyline
90
4
70
1
43
0.0
10
3.8199999102272519
20
1.1700000397650949
10
3.8199999102272519
20
0.97887795276558953
10
3.2999999102272524
20
0.97887795276558909
10
3.2999999102272524
20
1.1700000397650949
0
LWPOLYLINE
5
125
100
AcDbEntity
8
0
100
AcDbPolyline
90
4
70
1
43
0.0
10
2.5699999135273255
20
0.23000003976524128
10
2.569999915042922
20
-0.0099999602347220877
10
1.5499999134917133
20
-0.0099999602347221293
10
1.5499999158620268
20
0.23000003976524119
0
LWPOLYLINE
5
126
100
AcDbEntity
8
0
100
AcDbPolyline
90
4
70
1
43
0.0
10
-7.6100002074429369
20
2.4099999520316859
10
-7.6100002074429369
20
2.6499999520316662
10
-6.9900002074429359
20
2.649999952031667
10
-6.9900002074429359
20
2.4099999520316864
0
CIRCLE
5
127
100
AcDbEntity
8
0
100
AcDbCircle
10
-7.2999998487978308
20
1.1449999522818775
30
0
40
0.60000000000000031
210
-0
220
0
230
1
0
ENDSEC
0
SECTION
2
OBJECTS
0
DICTIONARY
5
C
100
AcDbDictionary
3
ACAD_GROUP
350
D
3
ACAD_MLINESTYLE
350
17
0
DICTIONARY
5
D
100
AcDbDictionary
0
DICTIONARY
5
1A
330
C
100
AcDbDictionary
0
DICTIONARY
5
17
100
AcDbDictionary
0
ENDSEC
0
EOF
