0
SECTION
2
HEADER
9
$INSUNITS
70
1
9
$ACADVER
1
AC1014
9
$HANDSEED
5
FFFF
0
ENDSEC
0
SECTION
2
TABLES
0
TABLE
2
VPORT
5
8
100
AcDbSymbolTable
0
ENDTAB
0
TABLE
2
LTYPE
5
5
100
AcDbSymbolTable
0
LTYPE
5
14
100
AcDbSymbolTableRecord
100
AcDbLinetypeTableRecord
2
BYBLOCK
70
0
0
LTYPE
5
15
100
AcDbSymbolTableRecord
100
AcDbLinetypeTableRecord
2
BYLAYER
70
0
0
LTYPE
5
16
100
AcDbSymbolTableRecord
100
AcDbLinetypeTableRecord
2
DASHED
70
0
3
Dashed __ __ __ __ __ __ __ __ __ __ __ __ __ _
72
65
73
2
40
0.75
49
0.5
74
0
49
-0.25
74
0
0
ENDTAB
0
TABLE
2
LAYER
5
2
100
AcDbSymbolTable
70
2
0
LAYER
5
50
100
AcDbSymbolTableRecord
100
AcDbLayerTableRecord
2
0
70
0
62
7
6
CONTINUOUS
0
ENDTAB
0
TABLE
2
STYLE
5
3
100
AcDbSymbolTable
70
1
0
STYLE
5
11
100
AcDbSymbolTableRecord
100
AcDbTextStyleTableRecord
2
STANDARD
70
0
0
ENDTAB
0
TABLE
2
VIEW
5
6
100
AcDbSymbolTable
70
0
0
ENDTAB
0
TABLE
2
UCS
5
7
100
AcDbSymbolTable
70
0
0
ENDTAB
0
TABLE
2
APPID
5
9
100
AcDbSymbolTable
70
2
0
APPID
5
12
100
AcDbSymbolTableRecord
100
AcDbRegAppTableRecord
2
ACAD
70
0
0
ENDTAB
0
TABLE
2
DIMSTYLE
5
A
100
AcDbSymbolTable
70
1
0
ENDTAB
0
TABLE
2
BLOCK_RECORD
5
1
100
AcDbSymbolTable
70
1
0
BLOCK_RECORD
5
1F
100
AcDbSymbolTableRecord
100
AcDbBlockTableRecord
2
*MODEL_SPACE
0
BLOCK_RECORD
5
1B
100
AcDbSymbolTableRecord
100
AcDbBlockTableRecord
2
*PAPER_SPACE
0
ENDTAB
0
ENDSEC
0
SECTION
2
BLOCKS
0
BLOCK
5
20
100
AcDbEntity
100
AcDbBlockBegin
2
*MODEL_SPACE
0
ENDBLK
5
21
100
AcDbEntity
100
AcDbBlockEnd
0
BLOCK
5
1C
100
AcDbEntity
100
AcDbBlockBegin
2
*PAPER_SPACE
0
ENDBLK
5
1D
100
AcDbEntity
100
AcDbBlockEnd
0
ENDSEC
0
SECTION
2
ENTITIES
0
LWPOLYLINE
5
100
100
AcDbEntity
8
0
100
AcDbPolyline
90
34
70
1
43
0.0
10
-8.3200000072818039
20
7.4389997455884727
42
0.41421356237308754
10
-8.540000007281801
20
7.2189997455884916
10
-8.5400000072818028
20
0.43999999999941092
42
0.41421356237309009
10
-8.3200000072818021
20
0.2199999999994286
10
-8.0900000072818035
20
0.21999990854092868
10
-8.0900000072818035
20
-8.7482597412921452e-08
10
-7.6100001073621648
20
-8.7482597433176048e-08
10
-7.6100001073621648
20
0.2299999125173845
10
-6.9900002074429359
20
0.2299999125173845
10
-6.9900002074429359
20
-8.7482597412921452e-08
10
-6.2800000840332633
20
7.1146187622198119e-13
10
-6.2800000840332633
20
-0.99999999999913114
10
6.2699997647645622
20
-1.0000000318880193
10
6.2699997647645622
20
0.010000000000706992
10
6.4999997645642997
20
0.010000000000710671
10
6.4999997555524613
20
0.46000000000063801
10
6.269999755352198
20
0.46000000000063473
10
6.269999755352198
20
0.7000000000005987
10
6.4999997554162281
20
0.7000000000006017
10
6.4999997647005348
20
2.1500000000003676
10
6.2699997648586896
20
2.150000000000365
10
6.2699997552580733
20
3.1700000000002055
10
6.4999997554463187
20
3.1700000000002082
10
6.4999997646704424
20
4.1500000000000519
10
6.2699997648586896
20
4.1500000000000501
10
6.2699997552580733
20
5.1699999999998916
10
6.4999997554463187
20
5.1699999999998933
10
6.4999997646704424
20
6.1499999999997366
10
6.2699997648586896
20
6.1499999999997366
10
6.2699997552580733
20
7.1699999999995754
10
6.4999997554642475
20
7.1699999999995745
10
6.4999997647645653
20
7.9999999999994493
10
-6.499999851174092
20
7.9999999999994493
10
-6.499999851174092
20
7.4389997455884735
0
LWPOLYLINE
5
101
100
AcDbEntity
8
0
100
AcDbPolyline
90
4
70
1
43
0.0
10
5.2699999135904774
20
1.1700000000005291
10
5.789999914222129
20
1.1700000000005293
10
5.789999914222129
20
1.0400000000005478
10
5.2699999135904774
20
1.0400000000005478
0
LWPOLYLINE
5
102
100
AcDbEntity
8
0
100
AcDbPolyline
90
4
70
1
43
0.0
10
-7.6100002074429369
20
6.9889997455885027
10
-7.6100002074429369
20
7.2289997455884833
10
-6.9900002074429359
20
7.228999745588486
10
-6.9900002074429359
20
6.9889997455885053
0
LWPOLYLINE
5
103
100
AcDbEntity
8
0
100
AcDbPolyline
90
4
70
1
43
0.0
10
-6.2699998417617264
20
0.7000000000005987
10
-6.2699998417617264
20
0.46000000000063468
10
-6.5099998614951105
20
0.46000000000063801
10
-6.5099998741923866
20
0.70000000000060181
0
LWPOLYLINE
5
104
100
AcDbEntity
8
0
100
AcDbPolyline
90
4
70
1
43
0.0
10
4.5499999134824654
20
0.4600000000006379
10
4.54999991607475
20
0.7000000000006017
10
4.7899999160747493
20
0.7000000000006017
10
4.7899999134824656
20
0.4600000000006379
0
CIRCLE
5
105
100
AcDbEntity
8
0
100
AcDbCircle
10
-5.818999749140497
20
7.6800000163546462
30
0
40
0.062499999999999799
210
-0
220
0
230
1
0
CIRCLE
5
106
100
AcDbEntity
8
0
100
AcDbCircle
10
-5.818999749140497
20
-0.31999998364409071
30
0
40
0.062499999999999799
210
-0
220
0
230
1
0
LWPOLYLINE
5
107
100
AcDbEntity
8
0
100
AcDbPolyline
90
4
70
1
43
0.0
10
-6.2699998512682162
20
5.1699999999998916
10
-6.2699998416675999
20
4.150000000000051
10
-6.5100000567157137
20
4.150000000000051
10
-6.5100001106791332
20
5.1699999999998933
0
CIRCLE
5
108
100
AcDbEntity
8
0
100
AcDbCircle
10
5.817999983644861
20
0.46000001635577892
30
0
40
0.062499999999999799
210
-0
220
0
230
1
0
LWPOLYLINE
5
109
100
AcDbEntity
8
0
100
AcDbPolyline
90
4
70
1
43
0.0
10
-0.43000008493005509
20
0.23000000000067611
10
-0.43000008647384907
20
-0.0099999999992878303
10
-1.4500000864382356
20
-0.0099999999992878598
10
-1.4500000857491597
20
0.2300000000006758
0
CIRCLE
5
110
100
AcDbEntity
8
0
100
AcDbCircle
10
5.817999983644861
20
7.6800000163546374
30
0
40
0.062499999999999799
210
-0
220
0
230
1
0
LWPOLYLINE
5
111
100
AcDbEntity
8
0
100
AcDbPolyline
90
4
70
1
43
0.0
10
-6.2699998512682162
20
3.170000000000206
10
-6.2699998416675999
20
2.150000000000365
10
-6.5099999509050877
20
2.1500000000003676
10
-6.5100000048685081
20
3.1700000000002082
0
CIRCLE
5
112
100
AcDbEntity
8
0
100
AcDbCircle
10
-3.499999846467909
20
3.5000000000001852
30
0
40
2.2399999999999998
210
-0
220
0
230
1
0
LWPOLYLINE
5
113
100
AcDbEntity
8
0
100
AcDbPolyline
90
5
70
1
43
0.0
10
-6.5100001625263397
20
6.1499999999997366
10
-6.5100002074429373
20
6.9989997450594501
10
-6.5100002074429355
20
7.1699999999995754
10
-6.2699998512682162
20
7.1699999999995745
10
-6.2699998416675999
20
6.1499999999997348
0
LWPOLYLINE
5
114
100
AcDbEntity
8
0
100
AcDbPolyline
90
4
70
1
43
0.0
10
-3.4300000864824107
20
0.23000000000067611
10
-3.4300000847331593
20
-0.0099999999992878303
10
-4.4500000865175346
20
-0.0099999999992878598
10
-4.4500000839252492
20
0.2300000000006758
0
LWPOLYLINE
5
115
100
AcDbEntity
8
0
100
AcDbPolyline
90
4
70
1
43
0.0
10
3.8199999102272519
20
1.1700000000005293
10
3.8199999102272519
20
0.97887795276558909
10
3.2999999102272524
20
0.97887795276558909
10
3.2999999102272524
20
1.1700000000005293
0
LWPOLYLINE
5
116
100
AcDbEntity
8
0
100
AcDbPolyline
90
4
70
1
43
0.0
10
2.569999913527325
20
0.23000000000067611
10
2.569999915042922
20
-0.0099999999992878303
10
1.5499999134917133
20
-0.0099999999992878598
10
1.5499999158620263
20
0.2300000000006758
0
LWPOLYLINE
5
117
100
AcDbEntity
8
0
100
AcDbPolyline
90
4
70
1
43
0.0
10
-7.6100002074429369
20
2.409999912267121
10
-7.6100002074429369
20
2.6499999122671016
10
-6.9900002074429359
20
2.6499999122671021
10
-6.9900002074429359
20
2.409999912267121
0
CIRCLE
5
118
100
AcDbEntity
8
0
100
AcDbCircle
10
-7.2999998487978308
20
1.144999912517312
30
0
40
0.60000000000000031
210
-0
220
0
230
1
0
ENDSEC
0
SECTION
2
OBJECTS
0
DICTIONARY
5
C
100
AcDbDictionary
3
ACAD_GROUP
350
D
3
ACAD_MLINESTYLE
350
17
0
DICTIONARY
5
D
100
AcDbDictionary
0
DICTIONARY
5
1A
330
C
100
AcDbDictionary
0
DICTIONARY
5
17
100
AcDbDictionary
0
ENDSEC
0
EOF
