0
SECTION
2
HEADER
9
$INSUNITS
70
1
9
$ACADVER
1
AC1014
9
$HANDSEED
5
FFFF
0
ENDSEC
0
SECTION
2
TABLES
0
TABLE
2
VPORT
5
8
100
AcDbSymbolTable
0
ENDTAB
0
TABLE
2
LTYPE
5
5
100
AcDbSymbolTable
0
LTYPE
5
14
100
AcDbSymbolTableRecord
100
AcDbLinetypeTableRecord
2
BYBLOCK
70
0
0
LTYPE
5
15
100
AcDbSymbolTableRecord
100
AcDbLinetypeTableRecord
2
BYLAYER
70
0
0
LTYPE
5
16
100
AcDbSymbolTableRecord
100
AcDbLinetypeTableRecord
2
DASHED
70
0
3
Dashed __ __ __ __ __ __ __ __ __ __ __ __ __ _
72
65
73
2
40
0.75
49
0.5
74
0
49
-0.25
74
0
0
ENDTAB
0
TABLE
2
LAYER
5
2
100
AcDbSymbolTable
70
3
0
LAYER
5
50
100
AcDbSymbolTableRecord
100
AcDbLayerTableRecord
2
1
70
0
62
7
6
DASHED
0
LAYER
5
51
100
AcDbSymbolTableRecord
100
AcDbLayerTableRecord
2
0
70
0
62
7
6
CONTINUOUS
0
ENDTAB
0
TABLE
2
STYLE
5
3
100
AcDbSymbolTable
70
1
0
STYLE
5
11
100
AcDbSymbolTableRecord
100
AcDbTextStyleTableRecord
2
STANDARD
70
0
0
ENDTAB
0
TABLE
2
VIEW
5
6
100
AcDbSymbolTable
70
0
0
ENDTAB
0
TABLE
2
UCS
5
7
100
AcDbSymbolTable
70
0
0
ENDTAB
0
TABLE
2
APPID
5
9
100
AcDbSymbolTable
70
2
0
APPID
5
12
100
AcDbSymbolTableRecord
100
AcDbRegAppTableRecord
2
ACAD
70
0
0
ENDTAB
0
TABLE
2
DIMSTYLE
5
A
100
AcDbSymbolTable
70
1
0
ENDTAB
0
TABLE
2
BLOCK_RECORD
5
1
100
AcDbSymbolTable
70
1
0
BLOCK_RECORD
5
1F
100
AcDbSymbolTableRecord
100
AcDbBlockTableRecord
2
*MODEL_SPACE
0
BLOCK_RECORD
5
1B
100
AcDbSymbolTableRecord
100
AcDbBlockTableRecord
2
*PAPER_SPACE
0
ENDTAB
0
ENDSEC
0
SECTION
2
BLOCKS
0
BLOCK
5
20
100
AcDbEntity
100
AcDbBlockBegin
2
*MODEL_SPACE
0
ENDBLK
5
21
100
AcDbEntity
100
AcDbBlockEnd
0
BLOCK
5
1C
100
AcDbEntity
100
AcDbBlockBegin
2
*PAPER_SPACE
0
ENDBLK
5
1D
100
AcDbEntity
100
AcDbBlockEnd
0
ENDSEC
0
SECTION
2
ENTITIES
0
CIRCLE
5
100
100
AcDbEntity
8
0
100
AcDbCircle
10
-7.2999998487978308
20
1.144999912517312
30
0
40
0.60000000000000031
210
-0
220
0
230
1
0
LWPOLYLINE
5
101
100
AcDbEntity
8
0
100
AcDbPolyline
90
4
70
1
43
0.0
10
-7.6000002074429363
20
2.4199999122671199
10
-7.6000002074429363
20
2.6399999122671027
10
-7.0000002074429366
20
2.6399999122671027
10
-7.0000002074429366
20
2.4199999122671203
0
LWPOLYLINE
5
102
100
AcDbEntity
8
0
100
AcDbPolyline
90
4
70
1
43
0.0
10
2.5599999135904752
20
0.22000000000067677
10
2.5599999149797723
20
7.1150434625386999e-13
10
1.5599999135904761
20
7.1146187622198119e-13
10
1.5599999157632634
20
0.22000000000067671
0
LWPOLYLINE
5
103
100
AcDbEntity
8
0
100
AcDbPolyline
90
4
70
1
43
0.0
10
3.3099999999999987
20
0.98887795276558921
10
3.3099999102272522
20
1.1600000000005302
10
3.8099999102272522
20
1.1600000000005302
10
3.8099999966367752
20
0.98887795276558921
0
LWPOLYLINE
5
104
100
AcDbEntity
8
0
100
AcDbPolyline
90
4
70
1
43
0.0
10
-3.4400000864095253
20
0.22000000000067677
10
-3.4400000848060444
20
7.1150434625386999e-13
10
-4.4400000864095235
20
7.1146187622198119e-13
10
-4.4400000840332616
20
0.22000000000067671
0
LWPOLYLINE
5
105
100
AcDbEntity
8
0
100
AcDbPolyline
90
5
70
1
43
0.0
10
-6.5000001630553914
20
6.1599999999997177
10
-6.5000002074429366
20
6.9989997455885051
10
-6.5000002074429366
20
7.1599999999995765
10
-6.2799998511740931
20
7.1599999999995756
10
-6.2799998417617235
20
6.1599999999997346
0
CIRCLE
5
106
100
AcDbEntity
8
0
100
AcDbCircle
10
-3.499999846467909
20
3.5000000000001852
30
0
40
2.2399999999999998
210
-0
220
0
230
1
0
LWPOLYLINE
5
107
100
AcDbEntity
8
0
100
AcDbPolyline
90
4
70
1
43
0.0
10
-6.2799998511740931
20
3.1600000000002071
10
-6.2799998417617235
20
2.1600000000003639
10
-6.4999998417617233
20
2.1600000000003665
10
-6.5000000043394541
20
3.1600000000002009
0
CIRCLE
5
108
100
AcDbEntity
8
0
100
AcDbCircle
10
5.817999983644861
20
7.6800000163546374
30
0
40
0.062499999999999799
210
-0
220
0
230
1
0
LWPOLYLINE
5
109
100
AcDbEntity
8
0
100
AcDbPolyline
90
4
70
1
43
0.0
10
-0.44000008499437998
20
0.22000000000067677
10
-0.44000008640952437
20
7.1150434625386999e-13
10
-1.4400000864095239
20
7.1146187622198119e-13
10
-1.4400000857778712
20
0.22000000000067671
0
CIRCLE
5
110
100
AcDbEntity
8
0
100
AcDbCircle
10
5.817999983644861
20
0.46000001635577892
30
0
40
0.062499999999999799
210
-0
220
0
230
1
0
LWPOLYLINE
5
111
100
AcDbEntity
8
0
100
AcDbPolyline
90
4
70
1
43
0.0
10
-6.2799998511740931
20
5.1599999999998927
10
-6.2799998417617235
20
4.1600000000000499
10
-6.4999998417617233
20
4.1600000000000508
10
-6.5000001101500793
20
5.1599999999998793
0
CIRCLE
5
112
100
AcDbEntity
8
0
100
AcDbCircle
10
-5.818999749140497
20
-0.31999998364409071
30
0
40
0.062499999999999799
210
-0
220
0
230
1
0
CIRCLE
5
113
100
AcDbEntity
8
0
100
AcDbCircle
10
-5.818999749140497
20
7.6800000163546462
30
0
40
0.062499999999999799
210
-0
220
0
230
1
0
LWPOLYLINE
5
114
100
AcDbEntity
8
0
100
AcDbPolyline
90
4
70
1
43
0.0
10
4.5599999135904765
20
0.47000000000063724
10
4.5599999159667384
20
0.69000000000060246
10
4.7799999159667372
20
0.69000000000060246
10
4.7799999135904772
20
0.47000000000063724
0
LWPOLYLINE
5
115
100
AcDbEntity
8
0
100
AcDbPolyline
90
4
70
1
43
0.0
10
-6.2799998417617262
20
0.69000000000059958
10
-6.2799998417617262
20
0.47000000000063408
10
-6.499999841761726
20
0.47000000000063724
10
-6.499999841761726
20
0.69000000000060246
0
LWPOLYLINE
5
116
100
AcDbEntity
8
0
100
AcDbPolyline
90
4
70
1
43
0.0
10
-7.6000002074429363
20
6.9989997455885034
10
-7.6000002074429363
20
7.2189997455884853
10
-7.0000002074429366
20
7.2189997455884871
10
-7.0000002074429366
20
6.998999745588506
0
LWPOLYLINE
5
117
100
AcDbEntity
8
0
100
AcDbPolyline
90
4
70
1
43
0.0
10
5.2799999135904772
20
1.1600000000005299
10
5.7799999142221292
20
1.1600000000005302
10
5.7799999142221292
20
1.0500000000005472
10
5.2799999135904772
20
1.0500000000005472
0
LWPOLYLINE
5
118
100
AcDbEntity
8
0
100
AcDbPolyline
90
34
70
1
43
0.0
10
-8.3200000072818039
20
7.4389997455884727
42
0.41421356237308754
10
-8.540000007281801
20
7.2189997455884916
10
-8.5400000072818028
20
0.43999999999941092
42
0.41421356237309009
10
-8.3200000072818021
20
0.2199999999994286
10
-8.100000007281805
20
0.21999991251738521
10
-8.100000007281805
20
-8.7482597412921452e-08
10
-7.6000001073621641
20
-8.748259743331328e-08
10
-7.6000001073621641
20
0.21999991251738521
10
-7.0000002074429366
20
0.21999991251738521
10
-7.0000002074429366
20
-8.7482597412921452e-08
10
-6.2800000840332633
20
7.1146187622198119e-13
10
-6.2800000840332633
20
-0.99999999999913114
10
6.279999764764562
20
-1.0000000319134288
10
6.279999764764562
20
7.0826983822937143e-13
10
6.4999997647645626
20
7.1146187588850361e-13
10
6.4999997553521984
20
0.4700000000006373
10
6.2799997553521987
20
0.47000000000063408
10
6.2799997553521987
20
0.69000000000059958
10
6.4999997553521984
20
0.69000000000060246
10
6.4999997647645653
20
2.1600000000003665
10
6.2799997647645665
20
2.1600000000003639
10
6.2799997553521969
20
3.1600000000002062
10
6.4999997553521958
20
3.1600000000002093
10
6.4999997647645653
20
4.1600000000000508
10
6.2799997647645665
20
4.160000000000049
10
6.2799997553521969
20
5.1599999999998918
10
6.4999997553521958
20
5.1599999999998944
10
6.4999997647645653
20
6.1599999999997355
10
6.2799997647645665
20
6.1599999999997355
10
6.2799997553521969
20
7.1599999999995765
10
6.4999997553521958
20
7.1599999999995756
10
6.4999997647645653
20
7.9999999999994493
10
-6.499999851174092
20
7.9999999999994493
10
-6.499999851174092
20
7.4389997455884735
0
LWPOLYLINE
5
119
100
AcDbEntity
8
0
100
AcDbPolyline
90
4
70
1
43
0.0
10
-6.4999997584594311
20
3.1599999999992767
10
-6.4999997584594311
20
2.1599999999992763
10
-6.2799997584594314
20
2.1599999999992789
10
-6.2799997584594314
20
3.1599999999992803
0
ENDSEC
0
SECTION
2
OBJECTS
0
DICTIONARY
5
C
100
AcDbDictionary
3
ACAD_GROUP
350
D
3
ACAD_MLINESTYLE
350
17
0
DICTIONARY
5
D
100
AcDbDictionary
0
DICTIONARY
5
1A
330
C
100
AcDbDictionary
0
DICTIONARY
5
17
100
AcDbDictionary
0
ENDSEC
0
EOF
