0
SECTION
2
HEADER
9
$INSUNITS
70
1
9
$ACADVER
1
AC1014
9
$HANDSEED
5
FFFF
0
ENDSEC
0
SECTION
2
TABLES
0
TABLE
2
VPORT
5
8
100
AcDbSymbolTable
0
ENDTAB
0
TABLE
2
LTYPE
5
5
100
AcDbSymbolTable
0
LTYPE
5
14
100
AcDbSymbolTableRecord
100
AcDbLinetypeTableRecord
2
BYBLOCK
70
0
0
LTYPE
5
15
100
AcDbSymbolTableRecord
100
AcDbLinetypeTableRecord
2
BYLAYER
70
0
0
LTYPE
5
16
100
AcDbSymbolTableRecord
100
AcDbLinetypeTableRecord
2
DASHED
70
0
3
Dashed __ __ __ __ __ __ __ __ __ __ __ __ __ _
72
65
73
2
40
0.75
49
0.5
74
0
49
-0.25
74
0
0
ENDTAB
0
TABLE
2
LAYER
5
2
100
AcDbSymbolTable
70
3
0
LAYER
5
50
100
AcDbSymbolTableRecord
100
AcDbLayerTableRecord
2
1
70
0
62
7
6
DASHED
0
LAYER
5
51
100
AcDbSymbolTableRecord
100
AcDbLayerTableRecord
2
0
70
0
62
7
6
CONTINUOUS
0
ENDTAB
0
TABLE
2
STYLE
5
3
100
AcDbSymbolTable
70
1
0
STYLE
5
11
100
AcDbSymbolTableRecord
100
AcDbTextStyleTableRecord
2
STANDARD
70
0
0
ENDTAB
0
TABLE
2
VIEW
5
6
100
AcDbSymbolTable
70
0
0
ENDTAB
0
TABLE
2
UCS
5
7
100
AcDbSymbolTable
70
0
0
ENDTAB
0
TABLE
2
APPID
5
9
100
AcDbSymbolTable
70
2
0
APPID
5
12
100
AcDbSymbolTableRecord
100
AcDbRegAppTableRecord
2
ACAD
70
0
0
ENDTAB
0
TABLE
2
DIMSTYLE
5
A
100
AcDbSymbolTable
70
1
0
ENDTAB
0
TABLE
2
BLOCK_RECORD
5
1
100
AcDbSymbolTable
70
1
0
BLOCK_RECORD
5
1F
100
AcDbSymbolTableRecord
100
AcDbBlockTableRecord
2
*MODEL_SPACE
0
BLOCK_RECORD
5
1B
100
AcDbSymbolTableRecord
100
AcDbBlockTableRecord
2
*PAPER_SPACE
0
ENDTAB
0
ENDSEC
0
SECTION
2
BLOCKS
0
BLOCK
5
20
100
AcDbEntity
100
AcDbBlockBegin
2
*MODEL_SPACE
0
ENDBLK
5
21
100
AcDbEntity
100
AcDbBlockEnd
0
BLOCK
5
1C
100
AcDbEntity
100
AcDbBlockBegin
2
*PAPER_SPACE
0
ENDBLK
5
1D
100
AcDbEntity
100
AcDbBlockEnd
0
ENDSEC
0
SECTION
2
ENTITIES
0
CIRCLE
5
100
100
AcDbEntity
8
0
100
AcDbCircle
10
4.6338582738528089
20
1.9692913385826842
30
0
40
0.059055118110236358
210
0
220
-0
230
1
0
CIRCLE
5
101
100
AcDbEntity
8
0
100
AcDbCircle
10
-1.6653543245724021
20
1.9692913385826842
30
0
40
0.059055118110236358
210
0
220
-0
230
1
0
CIRCLE
5
102
100
AcDbEntity
8
0
100
AcDbCircle
10
-3.6338582615802708
20
0.6307086614173264
30
0
40
0.059055118110236358
210
0
220
-0
230
1
0
CIRCLE
5
103
100
AcDbEntity
8
0
100
AcDbCircle
10
4.6338582738528098
20
0.63070866141732496
30
0
40
0.059055118110236358
210
0
220
-0
230
1
0
CIRCLE
5
104
100
AcDbEntity
8
0
100
AcDbCircle
10
3.4330708722780137
20
1.9692913385826842
30
0
40
0.059055118110236358
210
0
220
-0
230
1
0
CIRCLE
5
105
100
AcDbEntity
8
0
100
AcDbCircle
10
-3.6338582615802686
20
1.9692913385826871
30
0
40
0.059055118110236358
210
0
220
-0
230
1
0
CIRCLE
5
106
100
AcDbEntity
8
0
100
AcDbCircle
10
-1.6653543245723965
20
0.6307086614173264
30
0
40
0.059055118110236358
210
0
220
-0
230
1
0
CIRCLE
5
107
100
AcDbEntity
8
0
100
AcDbCircle
10
3.4330708722780026
20
0.63070866141732573
30
0
40
0.059055118110236358
210
0
220
-0
230
1
0
CIRCLE
5
108
100
AcDbEntity
8
0
100
AcDbCircle
10
4.6338582738528089
20
4.1192913385826841
30
0
40
0.059055118110236358
210
0
220
-0
230
1
0
CIRCLE
5
109
100
AcDbEntity
8
0
100
AcDbCircle
10
-1.6653543245724021
20
4.1192913385826841
30
0
40
0.059055118110236358
210
0
220
-0
230
1
0
CIRCLE
5
110
100
AcDbEntity
8
0
100
AcDbCircle
10
-3.6338582615802708
20
2.780708661417326
30
0
40
0.059055118110236358
210
0
220
-0
230
1
0
CIRCLE
5
111
100
AcDbEntity
8
0
100
AcDbCircle
10
4.6338582738528098
20
2.7807086614173246
30
0
40
0.059055118110236358
210
0
220
-0
230
1
0
CIRCLE
5
112
100
AcDbEntity
8
0
100
AcDbCircle
10
3.4330708722780137
20
4.1192913385826841
30
0
40
0.059055118110236358
210
0
220
-0
230
1
0
CIRCLE
5
113
100
AcDbEntity
8
0
100
AcDbCircle
10
-3.6338582615802686
20
4.1192913385826868
30
0
40
0.059055118110236358
210
0
220
-0
230
1
0
CIRCLE
5
114
100
AcDbEntity
8
0
100
AcDbCircle
10
-1.6653543245723965
20
2.780708661417326
30
0
40
0.059055118110236358
210
0
220
-0
230
1
0
CIRCLE
5
115
100
AcDbEntity
8
0
100
AcDbCircle
10
3.4330708722780026
20
2.7807086614173251
30
0
40
0.059055118110236358
210
0
220
-0
230
1
0
CIRCLE
5
116
100
AcDbEntity
8
0
100
AcDbCircle
10
4.6338582738528089
20
6.2692913385826836
30
0
40
0.059055118110236358
210
0
220
-0
230
1
0
CIRCLE
5
117
100
AcDbEntity
8
0
100
AcDbCircle
10
-1.6653543245724021
20
6.2692913385826836
30
0
40
0.059055118110236358
210
0
220
-0
230
1
0
CIRCLE
5
118
100
AcDbEntity
8
0
100
AcDbCircle
10
-3.6338582615802708
20
4.9307086614173254
30
0
40
0.059055118110236358
210
0
220
-0
230
1
0
CIRCLE
5
119
100
AcDbEntity
8
0
100
AcDbCircle
10
4.6338582738528098
20
4.9307086614173246
30
0
40
0.059055118110236358
210
0
220
-0
230
1
0
CIRCLE
5
120
100
AcDbEntity
8
0
100
AcDbCircle
10
3.4330708722780137
20
6.2692913385826836
30
0
40
0.059055118110236358
210
0
220
-0
230
1
0
CIRCLE
5
121
100
AcDbEntity
8
0
100
AcDbCircle
10
-3.6338582615802686
20
6.2692913385826863
30
0
40
0.059055118110236358
210
0
220
-0
230
1
0
CIRCLE
5
122
100
AcDbEntity
8
0
100
AcDbCircle
10
-1.6653543245723965
20
4.9307086614173254
30
0
40
0.059055118110236358
210
0
220
-0
230
1
0
CIRCLE
5
123
100
AcDbEntity
8
0
100
AcDbCircle
10
3.4330708722780026
20
4.9307086614173246
30
0
40
0.059055118110236358
210
0
220
-0
230
1
0
CIRCLE
5
124
100
AcDbEntity
8
0
100
AcDbCircle
10
5.818999749140497
20
-0.31999998364485288
30
0
40
0.062499999999999799
210
0
220
-0
230
1
0
CIRCLE
5
125
100
AcDbEntity
8
0
100
AcDbCircle
10
-5.817999983644861
20
0.46000001635514015
30
0
40
0.062499999999999799
210
0
220
-0
230
1
0
CIRCLE
5
126
100
AcDbEntity
8
0
100
AcDbCircle
10
5.818999749140497
20
7.6800000163551481
30
0
40
0.062499999999999799
210
0
220
-0
230
1
0
CIRCLE
5
127
100
AcDbEntity
8
0
100
AcDbCircle
10
-5.817999983644861
20
7.6800000163551392
30
0
40
0.062499999999999799
210
0
220
-0
230
1
0
LWPOLYLINE
5
128
100
AcDbEntity
8
0
100
AcDbPolyline
90
4
70
1
43
0.0
10
3.4399999999999999
20
0.21999999999999997
10
4.4399999976237359
20
0.21999999999999997
10
4.4399999999999977
20
0
10
3.439999998396519
20
0
0
LWPOLYLINE
5
129
100
AcDbEntity
8
0
100
AcDbPolyline
90
6
70
1
43
0.0
10
-3.8099999966367752
20
1.0500000000000014
10
-3.8099999966367752
20
1.1600000000000013
10
-3.3099999966367748
20
1.1600000000000013
10
-3.3099999966367748
20
1.0500000000000014
10
-3.3099999999999987
20
0.98887795276614265
10
-3.8099999966367752
20
0.98887795276614265
0
LWPOLYLINE
5
130
100
AcDbEntity
8
0
100
AcDbPolyline
90
4
70
1
43
0.0
10
-4.5600000000000005
20
0.46999999999999997
10
-4.7800000000000002
20
0.46999999999999997
10
-4.7800000023762603
20
0.68999999999999995
10
-4.5600000023762606
20
0.68999999999999995
0
LWPOLYLINE
5
131
100
AcDbEntity
8
0
100
AcDbPolyline
90
4
70
1
43
0.0
10
0.43999999858485539
20
0.21999999999999997
10
1.4399999993683463
20
0.21999999999999997
10
1.4399999999999991
20
0
10
0.43999999999999956
20
0
0
LWPOLYLINE
5
132
100
AcDbEntity
8
0
100
AcDbPolyline
90
4
70
1
43
0.0
10
-2.5599999999999992
20
0.21999999999999997
10
-1.5600000021727869
20
0.21999999999999997
10
-1.5600000000000003
20
0
10
-2.5600000013892958
20
0
0
LWPOLYLINE
5
133
100
AcDbEntity
8
0
100
AcDbPolyline
90
4
70
1
43
0.0
10
-5.2799999999999994
20
1.1600000000000013
10
-5.2799999999999994
20
1.0500000000000014
10
-5.7800000006316523
20
1.0500000000000014
10
-5.7800000006316523
20
1.1600000000000013
0
LWPOLYLINE
5
134
100
AcDbEntity
8
0
100
AcDbPolyline
90
40
70
1
43
0.0
10
-6.4999998417617215
20
0.46999999999999997
10
-6.4999998511740857
20
0
10
-6.2799998511740851
20
-3.4967654318902565e-15
10
-6.2799998511740851
20
-1.0000000319142979
10
6.2799999976237366
20
-0.99999999999999989
10
6.2799999976237375
20
0
10
6.4999998861780082
20
0
10
6.4999997553522002
20
0.46999999999999997
10
6.2799997553521996
20
0.46999999999999681
10
6.2799997553521996
20
0.68999999999999695
10
6.4999997553522002
20
0.68999999999999995
10
6.4999997553521967
20
2.1599999999999957
10
6.2799997553521969
20
2.1599999999999935
10
6.2799997647645665
20
3.1599999999999935
10
6.4999997647645662
20
3.1599999999999957
10
6.4999997553521967
20
4.1599999999999957
10
6.2799997553521969
20
4.1599999999999939
10
6.2799997647645665
20
5.1599999999999939
10
6.4999997647645662
20
5.1599999999999948
10
6.4999997553521967
20
6.1599999999999948
10
6.2799997553521969
20
6.1599999999999948
10
6.2799997647645665
20
7.159999999999993
10
6.4999997647645662
20
7.159999999999993
10
6.4999997647645662
20
7.9999999999999991
10
-6.4999998511740884
20
7.9999999999999991
10
-6.4999998417617189
20
7.159999999999993
10
-6.27999984176172
20
7.159999999999993
10
-6.2799998511740887
20
6.1599999999999948
10
-6.4999998511740884
20
6.1599999999999948
10
-6.4999998417617189
20
5.1599999999999948
10
-6.27999984176172
20
5.1599999999999939
10
-6.2799998511740887
20
4.1599999999999939
10
-6.4999998511740884
20
4.1599999999999957
10
-6.4999998417617189
20
3.1599999999999957
10
-6.27999984176172
20
3.1599999999999935
10
-6.2799998511740887
20
2.1599999999999935
10
-6.4999998511740884
20
2.1599999999999957
10
-6.4999998417617215
20
0.69000000000000006
10
-6.2799998417617218
20
0.68999999999999695
10
-6.2799998417617218
20
0.46999999999999681
0
ENDSEC
0
SECTION
2
OBJECTS
0
DICTIONARY
5
C
100
AcDbDictionary
3
ACAD_GROUP
350
D
3
ACAD_MLINESTYLE
350
17
0
DICTIONARY
5
D
100
AcDbDictionary
0
DICTIONARY
5
1A
330
C
100
AcDbDictionary
0
DICTIONARY
5
17
100
AcDbDictionary
0
ENDSEC
0
EOF
