0
SECTION
2
HEADER
9
$INSUNITS
70
1
9
$ACADVER
1
AC1014
9
$HANDSEED
5
FFFF
0
ENDSEC
0
SECTION
2
TABLES
0
TABLE
2
VPORT
5
8
100
AcDbSymbolTable
0
ENDTAB
0
TABLE
2
LTYPE
5
5
100
AcDbSymbolTable
0
LTYPE
5
14
100
AcDbSymbolTableRecord
100
AcDbLinetypeTableRecord
2
BYBLOCK
70
0
0
LTYPE
5
15
100
AcDbSymbolTableRecord
100
AcDbLinetypeTableRecord
2
BYLAYER
70
0
0
LTYPE
5
16
100
AcDbSymbolTableRecord
100
AcDbLinetypeTableRecord
2
DASHED
70
0
3
Dashed __ __ __ __ __ __ __ __ __ __ __ __ __ _
72
65
73
2
40
0.75
49
0.5
74
0
49
-0.25
74
0
0
ENDTAB
0
TABLE
2
LAYER
5
2
100
AcDbSymbolTable
70
2
0
LAYER
5
50
100
AcDbSymbolTableRecord
100
AcDbLayerTableRecord
2
0
70
0
62
7
6
CONTINUOUS
0
ENDTAB
0
TABLE
2
STYLE
5
3
100
AcDbSymbolTable
70
1
0
STYLE
5
11
100
AcDbSymbolTableRecord
100
AcDbTextStyleTableRecord
2
STANDARD
70
0
0
ENDTAB
0
TABLE
2
VIEW
5
6
100
AcDbSymbolTable
70
0
0
ENDTAB
0
TABLE
2
UCS
5
7
100
AcDbSymbolTable
70
0
0
ENDTAB
0
TABLE
2
APPID
5
9
100
AcDbSymbolTable
70
2
0
APPID
5
12
100
AcDbSymbolTableRecord
100
AcDbRegAppTableRecord
2
ACAD
70
0
0
ENDTAB
0
TABLE
2
DIMSTYLE
5
A
100
AcDbSymbolTable
70
1
0
ENDTAB
0
TABLE
2
BLOCK_RECORD
5
1
100
AcDbSymbolTable
70
1
0
BLOCK_RECORD
5
1F
100
AcDbSymbolTableRecord
100
AcDbBlockTableRecord
2
*MODEL_SPACE
0
BLOCK_RECORD
5
1B
100
AcDbSymbolTableRecord
100
AcDbBlockTableRecord
2
*PAPER_SPACE
0
ENDTAB
0
ENDSEC
0
SECTION
2
BLOCKS
0
BLOCK
5
20
100
AcDbEntity
100
AcDbBlockBegin
2
*MODEL_SPACE
0
ENDBLK
5
21
100
AcDbEntity
100
AcDbBlockEnd
0
BLOCK
5
1C
100
AcDbEntity
100
AcDbBlockBegin
2
*PAPER_SPACE
0
ENDBLK
5
1D
100
AcDbEntity
100
AcDbBlockEnd
0
ENDSEC
0
SECTION
2
ENTITIES
0
CIRCLE
5
100
100
AcDbEntity
8
0
100
AcDbCircle
10
-4.5581022770714197e-08
20
7.5499999999999936
30
0
40
0.062992125984252009
210
0
220
0
230
1
0
CIRCLE
5
101
100
AcDbEntity
8
0
100
AcDbCircle
10
-4.5581022770714144e-08
20
6.9988188976377899
30
0
40
0.062992125984251982
210
0
220
0
230
1
0
CIRCLE
5
102
100
AcDbEntity
8
0
100
AcDbCircle
10
2.4551181102362198
20
0.95551181102361993
30
0
40
0.066929133858267681
210
0
220
0
230
1
0
CIRCLE
5
103
100
AcDbEntity
8
0
100
AcDbCircle
10
3.0850393700787393
20
5.5
30
0
40
0.066929133858267681
210
0
220
0
230
1
0
CIRCLE
5
104
100
AcDbEntity
8
0
100
AcDbCircle
10
-0.85196850393701051
20
5.1555118110236178
30
0
40
0.066929133858267764
210
0
220
0
230
1
0
CIRCLE
5
105
100
AcDbEntity
8
0
100
AcDbCircle
10
-0.85196850393701051
20
1.6444881889763763
30
0
40
0.066929133858267764
210
0
220
0
230
1
0
CIRCLE
5
106
100
AcDbEntity
8
0
100
AcDbCircle
10
-2.9385826771653591
20
3.7444881889763768
30
0
40
0.066929133858268389
210
0
220
0
230
1
0
CIRCLE
5
107
100
AcDbEntity
8
0
100
AcDbCircle
10
-2.9385826771653591
20
5.155511811023616
30
0
40
0.066929133858268389
210
0
220
0
230
1
0
CIRCLE
5
108
100
AcDbEntity
8
0
100
AcDbCircle
10
-2.9385826771653591
20
0.95551181102361504
30
0
40
0.066929133858268389
210
0
220
0
230
1
0
CIRCLE
5
109
100
AcDbEntity
8
0
100
AcDbCircle
10
-0.85196850393701051
20
3.7444881889763773
30
0
40
0.066929133858267764
210
0
220
0
230
1
0
CIRCLE
5
110
100
AcDbEntity
8
0
100
AcDbCircle
10
2.4551181102362198
20
5.1555118110236204
30
0
40
0.066929133858267681
210
0
220
0
230
1
0
CIRCLE
5
111
100
AcDbEntity
8
0
100
AcDbCircle
10
2.455118110236219
20
1.6444881889763774
30
0
40
0.066929133858267681
210
0
220
0
230
1
0
CIRCLE
5
112
100
AcDbEntity
8
0
100
AcDbCircle
10
3.0850393700787393
20
1.2999999999999989
30
0
40
0.066929133858267681
210
0
220
0
230
1
0
CIRCLE
5
113
100
AcDbEntity
8
0
100
AcDbCircle
10
2.455118110236219
20
3.7444881889763781
30
0
40
0.066929133858267681
210
0
220
0
230
1
0
CIRCLE
5
114
100
AcDbEntity
8
0
100
AcDbCircle
10
-0.85196850393701051
20
5.8444881889763769
30
0
40
0.066929133858267764
210
0
220
0
230
1
0
CIRCLE
5
115
100
AcDbEntity
8
0
100
AcDbCircle
10
-0.85196850393701051
20
0.95551181102361704
30
0
40
0.066929133858267764
210
0
220
0
230
1
0
CIRCLE
5
116
100
AcDbEntity
8
0
100
AcDbCircle
10
-2.9385826771653591
20
3.0555118110236159
30
0
40
0.066929133858268389
210
0
220
0
230
1
0
CIRCLE
5
117
100
AcDbEntity
8
0
100
AcDbCircle
10
-2.9385826771653591
20
5.844488188976376
30
0
40
0.066929133858268389
210
0
220
0
230
1
0
CIRCLE
5
118
100
AcDbEntity
8
0
100
AcDbCircle
10
-2.9385826771653591
20
1.6444881889763756
30
0
40
0.066929133858268389
210
0
220
0
230
1
0
CIRCLE
5
119
100
AcDbEntity
8
0
100
AcDbCircle
10
-0.85196850393701051
20
3.0555118110236181
30
0
40
0.066929133858267764
210
0
220
0
230
1
0
CIRCLE
5
120
100
AcDbEntity
8
0
100
AcDbCircle
10
2.455118110236219
20
5.8444881889763778
30
0
40
0.066929133858267681
210
0
220
0
230
1
0
CIRCLE
5
121
100
AcDbEntity
8
0
100
AcDbCircle
10
2.4551181102362198
20
3.0555118110236208
30
0
40
0.066929133858267681
210
0
220
0
230
1
0
CIRCLE
5
122
100
AcDbEntity
8
0
100
AcDbCircle
10
3.0850393700787393
20
3.3999999999999999
30
0
40
0.066929133858267681
210
0
220
0
230
1
0
LWPOLYLINE
5
123
100
AcDbEntity
8
0
100
AcDbPolyline
90
4
70
1
43
0.0
10
4.4500000001080098
20
-0.0099999999999999256
10
3.4299999983236331
20
-0.0099999999999999204
10
3.4300000000728854
20
0.22999999999999982
10
4.4499999975157243
20
0.22999999999999982
0
CIRCLE
5
124
100
AcDbEntity
8
0
100
AcDbCircle
10
-5.817999983644861
20
0.46000001635514015
30
0
40
0.062499999999999799
210
0
220
0
230
1
0
LWPOLYLINE
5
125
100
AcDbEntity
8
0
100
AcDbPolyline
90
4
70
1
43
0.0
10
-1.5499999999012373
20
-0.0099999999999999256
10
-2.5700000014524456
20
-0.0099999999999999204
10
-2.5699999999368495
20
0.22999999999999982
10
-1.5500000022715499
20
0.22999999999999982
0
LWPOLYLINE
5
126
100
AcDbEntity
8
0
100
AcDbPolyline
90
4
70
1
43
0.0
10
1.4500000000287105
20
-0.0099999999999999256
10
0.43000000006432421
20
-0.0099999999999999204
10
0.42999999852053061
20
0.22999999999999982
10
1.4499999993396349
20
0.22999999999999982
0
LWPOLYLINE
5
127
100
AcDbEntity
8
0
100
AcDbPolyline
90
4
70
1
43
0.0
10
-4.7900000024842724
20
0.69999999999999996
10
-4.5500000024842722
20
0.69999999999999996
10
-4.5499999998919884
20
0.45999999999999991
10
-4.7899999998919887
20
0.45999999999999991
0
CIRCLE
5
128
100
AcDbEntity
8
0
100
AcDbCircle
10
5.818999749140497
20
7.6800000163551481
30
0
40
0.062499999999999799
210
0
220
0
230
1
0
LWPOLYLINE
5
129
100
AcDbEntity
8
0
100
AcDbPolyline
90
4
70
1
43
0.0
10
-5.7900000006316521
20
1.0400000000000014
10
-5.7900000006316521
20
1.1700000000000013
10
-5.2699999999999987
20
1.1700000000000013
10
-5.2699999999999987
20
1.0400000000000014
0
CIRCLE
5
130
100
AcDbEntity
8
0
100
AcDbCircle
10
-5.817999983644861
20
7.6800000163551392
30
0
40
0.062499999999999799
210
0
220
0
230
1
0
LWPOLYLINE
5
131
100
AcDbEntity
8
0
100
AcDbPolyline
90
5
70
1
43
0.0
10
-3.299999996636775
20
1.0500000000000012
10
-3.3000000005502459
20
0.97887795276614253
10
-3.8199999966367741
20
0.97887795276614253
10
-3.8199999966367741
20
1.1700000000000013
10
-3.299999996636775
20
1.1700000000000013
0
CIRCLE
5
132
100
AcDbEntity
8
0
100
AcDbCircle
10
5.818999749140497
20
-0.31999998364485288
30
0
40
0.062499999999999799
210
0
220
0
230
1
0
LWPOLYLINE
5
133
100
AcDbEntity
8
0
100
AcDbPolyline
90
40
70
1
43
0.0
10
-6.269999841761722
20
0.45999999999999669
10
-6.4999998419619844
20
0.45999999999999991
10
-6.4999998509738228
20
0.010000000000000035
10
-6.2699998511740853
20
0.0099999999999960607
10
-6.2699998511740853
20
-1.0000000318888884
10
6.2699999976237368
20
-1.0000000000254095
10
6.2699999976237377
20
0.0099999999999997712
10
6.499999883394481
20
0.01
10
6.4999997581357274
20
0.46000000000000002
10
6.2699997553522007
20
0.45999999999999652
10
6.2699997553522007
20
0.69999999999999696
10
6.4999997553522002
20
0.69999999999999996
10
6.4999997553521967
20
2.1499999999999959
10
6.2699997552580733
20
2.1499999999999937
10
6.2699997648586905
20
3.1699999999999933
10
6.4999997646704433
20
3.1699999999999955
10
6.4999997554463205
20
4.1499999999999959
10
6.2699997552580733
20
4.1499999999999941
10
6.2699997648586905
20
5.1699999999999937
10
6.4999997646704433
20
5.1699999999999946
10
6.4999997554463205
20
6.149999999999995
10
6.2699997552580733
20
6.149999999999995
10
6.2699997648586905
20
7.1699999999999937
10
6.4999997647645662
20
7.1699999999999937
10
6.4999997647645662
20
7.9999999999999991
10
-6.4999998511740884
20
7.9999999999999991
10
-6.4999998418737706
20
7.1699999999999937
10
-6.2699998416675964
20
7.1699999999999937
10
-6.2699998512682127
20
6.149999999999995
10
-6.4999998510799655
20
6.149999999999995
10
-6.4999998418558418
20
5.1699999999999946
10
-6.2699998416675964
20
5.1699999999999937
10
-6.2699998512682127
20
4.1499999999999941
10
-6.4999998510799655
20
4.1499999999999959
10
-6.4999998418558418
20
3.1699999999999955
10
-6.2699998416675964
20
3.1699999999999933
10
-6.2699998512682127
20
2.1499999999999928
10
-6.4999998511100578
20
2.1499999999999959
10
-6.4999998418257512
20
0.70000000000000018
10
-6.269999841761722
20
0.69999999999999662
0
ENDSEC
0
SECTION
2
OBJECTS
0
DICTIONARY
5
C
100
AcDbDictionary
3
ACAD_GROUP
350
D
3
ACAD_MLINESTYLE
350
17
0
DICTIONARY
5
D
100
AcDbDictionary
0
DICTIONARY
5
1A
330
C
100
AcDbDictionary
0
DICTIONARY
5
17
100
AcDbDictionary
0
ENDSEC
0
EOF
